<mxfile host="Electron" modified="2024-01-12T15:40:27.361Z" agent="Mozilla/5.0 (Windows NT 10.0; Win64; x64) AppleWebKit/537.36 (KHTML, like Gecko) draw.io/22.1.18 Chrome/120.0.6099.199 Electron/28.1.2 Safari/537.36" etag="FEkFs7pQzJMHoBFF7QOq" version="22.1.18" type="device">
  <diagram name="Page-1" id="b5b7bab2-c9e2-2cf4-8b2a-24fd1a2a6d21">
    <mxGraphModel dx="5372" dy="5909" grid="0" gridSize="10" guides="1" tooltips="1" connect="1" arrows="1" fold="1" page="1" pageScale="1" pageWidth="3300" pageHeight="4681" background="#ffffff" math="0" shadow="0">
      <root>
        <mxCell id="0" />
        <mxCell id="1" parent="0" />
        <mxCell id="obIJAErb1e5xh0QblmXE-110" value="" style="shape=folder;fontStyle=1;spacingTop=10;tabWidth=194;tabHeight=22;tabPosition=left;html=1;rounded=0;shadow=0;comic=0;labelBackgroundColor=none;strokeWidth=1;fillColor=none;fontFamily=Verdana;fontSize=10;align=center;" parent="1" vertex="1">
          <mxGeometry x="2430" y="39.75" width="2160" height="1140.25" as="geometry" />
        </mxCell>
        <mxCell id="6e0c8c40b5770093-72" value="" style="shape=folder;fontStyle=1;spacingTop=10;tabWidth=194;tabHeight=22;tabPosition=left;html=1;rounded=0;shadow=0;comic=0;labelBackgroundColor=none;strokeWidth=1;fillColor=none;fontFamily=Verdana;fontSize=10;align=center;" parent="1" vertex="1">
          <mxGeometry x="-312.75" y="-3.74" width="2156.5" height="1543.74" as="geometry" />
        </mxCell>
        <mxCell id="obIJAErb1e5xh0QblmXE-666" value="" style="shape=folder;fontStyle=1;spacingTop=10;tabWidth=194;tabHeight=22;tabPosition=left;html=1;rounded=0;shadow=0;comic=0;labelBackgroundColor=none;strokeWidth=1;fillColor=none;fontFamily=Verdana;fontSize=10;align=center;" parent="1" vertex="1">
          <mxGeometry x="1250" y="1580" width="1960" height="1040" as="geometry" />
        </mxCell>
        <mxCell id="obIJAErb1e5xh0QblmXE-659" value="" style="shape=folder;fontStyle=1;spacingTop=10;tabWidth=194;tabHeight=22;tabPosition=left;html=1;rounded=0;shadow=0;comic=0;labelBackgroundColor=none;strokeWidth=1;fillColor=none;fontFamily=Verdana;fontSize=10;align=center;" parent="1" vertex="1">
          <mxGeometry x="1347" y="1880" width="715" height="630" as="geometry" />
        </mxCell>
        <mxCell id="obIJAErb1e5xh0QblmXE-661" value="" style="shape=folder;fontStyle=1;spacingTop=10;tabWidth=194;tabHeight=22;tabPosition=left;html=1;rounded=0;shadow=0;comic=0;labelBackgroundColor=none;strokeWidth=1;fillColor=none;fontFamily=Verdana;fontSize=10;align=center;" parent="1" vertex="1">
          <mxGeometry x="2302" y="1880" width="810" height="630" as="geometry" />
        </mxCell>
        <mxCell id="obIJAErb1e5xh0QblmXE-647" style="edgeStyle=orthogonalEdgeStyle;rounded=0;orthogonalLoop=1;jettySize=auto;html=1;exitX=0;exitY=0;exitDx=61.5;exitDy=0;exitPerimeter=0;entryX=0;entryY=0;entryDx=112;entryDy=56.75;entryPerimeter=0;dashed=1;endArrow=open;endFill=0;fontFamily=Verdana;fontSize=10;labelBackgroundColor=none;startFill=0;endSize=10;" parent="1" source="obIJAErb1e5xh0QblmXE-645" target="obIJAErb1e5xh0QblmXE-563" edge="1">
          <mxGeometry relative="1" as="geometry">
            <Array as="points">
              <mxPoint x="1722" y="2070" />
              <mxPoint x="1722" y="2017" />
            </Array>
          </mxGeometry>
        </mxCell>
        <mxCell id="obIJAErb1e5xh0QblmXE-645" value="" style="shape=folder;fontStyle=1;spacingTop=10;tabWidth=123;tabHeight=24;tabPosition=left;html=1;rounded=0;shadow=0;comic=0;labelBackgroundColor=none;strokeWidth=1;fontFamily=Verdana;fontSize=10;align=center;" parent="1" vertex="1">
          <mxGeometry x="1712" y="2070" width="280" height="150" as="geometry" />
        </mxCell>
        <mxCell id="obIJAErb1e5xh0QblmXE-462" style="edgeStyle=orthogonalEdgeStyle;rounded=0;orthogonalLoop=1;jettySize=auto;html=1;exitX=0;exitY=0;exitDx=0;exitDy=77;exitPerimeter=0;entryX=0;entryY=0;entryDx=112;entryDy=43.5;entryPerimeter=0;dashed=1;endArrow=open;endFill=0;fontFamily=Verdana;fontSize=10;labelBackgroundColor=none;startFill=0;endSize=10;" parent="1" source="obIJAErb1e5xh0QblmXE-454" target="obIJAErb1e5xh0QblmXE-451" edge="1">
          <mxGeometry relative="1" as="geometry" />
        </mxCell>
        <mxCell id="obIJAErb1e5xh0QblmXE-454" value="" style="shape=folder;fontStyle=1;spacingTop=10;tabWidth=123;tabHeight=24;tabPosition=left;html=1;rounded=0;shadow=0;comic=0;labelBackgroundColor=none;strokeWidth=1;fontFamily=Verdana;fontSize=10;align=center;" parent="1" vertex="1">
          <mxGeometry x="3400" y="685.41" width="280" height="130" as="geometry" />
        </mxCell>
        <mxCell id="obIJAErb1e5xh0QblmXE-506" style="edgeStyle=orthogonalEdgeStyle;rounded=0;orthogonalLoop=1;jettySize=auto;html=1;exitX=0;exitY=0;exitDx=0;exitDy=77;exitPerimeter=0;dashed=1;endArrow=open;endFill=0;fontFamily=Verdana;fontSize=10;labelBackgroundColor=none;startFill=0;endSize=10;" parent="1" source="obIJAErb1e5xh0QblmXE-430" edge="1">
          <mxGeometry relative="1" as="geometry">
            <mxPoint x="3190" y="677" as="targetPoint" />
            <Array as="points">
              <mxPoint x="3870" y="507" />
              <mxPoint x="3870" y="410" />
              <mxPoint x="3210" y="410" />
              <mxPoint x="3210" y="677" />
            </Array>
          </mxGeometry>
        </mxCell>
        <mxCell id="obIJAErb1e5xh0QblmXE-430" value="" style="shape=folder;fontStyle=1;spacingTop=10;tabWidth=123;tabHeight=24;tabPosition=left;html=1;rounded=0;shadow=0;comic=0;labelBackgroundColor=none;strokeWidth=1;fontFamily=Verdana;fontSize=10;align=center;" parent="1" vertex="1">
          <mxGeometry x="3890" y="430" width="280" height="130" as="geometry" />
        </mxCell>
        <mxCell id="obIJAErb1e5xh0QblmXE-358" value="" style="shape=folder;fontStyle=1;spacingTop=10;tabWidth=123;tabHeight=24;tabPosition=left;html=1;rounded=0;shadow=0;comic=0;labelBackgroundColor=none;strokeWidth=1;fontFamily=Verdana;fontSize=10;align=center;" parent="1" vertex="1">
          <mxGeometry x="490.5" y="540" width="380" height="150" as="geometry" />
        </mxCell>
        <mxCell id="obIJAErb1e5xh0QblmXE-313" value="" style="shape=folder;fontStyle=1;spacingTop=10;tabWidth=123;tabHeight=24;tabPosition=left;html=1;rounded=0;shadow=0;comic=0;labelBackgroundColor=none;strokeWidth=1;fontFamily=Verdana;fontSize=10;align=center;" parent="1" vertex="1">
          <mxGeometry x="1340" y="494.5" width="280" height="220" as="geometry" />
        </mxCell>
        <mxCell id="obIJAErb1e5xh0QblmXE-275" value="" style="shape=folder;fontStyle=1;spacingTop=10;tabWidth=123;tabHeight=24;tabPosition=left;html=1;rounded=0;shadow=0;comic=0;labelBackgroundColor=none;strokeWidth=1;fontFamily=Verdana;fontSize=10;align=center;" parent="1" vertex="1">
          <mxGeometry x="984" y="750" width="280" height="370" as="geometry" />
        </mxCell>
        <mxCell id="obIJAErb1e5xh0QblmXE-274" value="" style="group" parent="1" vertex="1" connectable="0">
          <mxGeometry x="984" y="760" width="280" height="260" as="geometry" />
        </mxCell>
        <mxCell id="obIJAErb1e5xh0QblmXE-273" value="time.time()" style="shape=folder;fontStyle=1;spacingTop=10;tabWidth=50;tabHeight=17;tabPosition=left;html=1;rounded=0;shadow=0;comic=0;labelBackgroundColor=none;strokeWidth=1;fontFamily=Verdana;fontSize=10;align=center;" parent="obIJAErb1e5xh0QblmXE-274" vertex="1">
          <mxGeometry x="16" y="35.5" width="114" height="70" as="geometry" />
        </mxCell>
        <mxCell id="obIJAErb1e5xh0QblmXE-276" value="keyboard.on_press()" style="shape=folder;fontStyle=1;spacingTop=10;tabWidth=50;tabHeight=17;tabPosition=left;html=1;rounded=0;shadow=0;comic=0;labelBackgroundColor=none;strokeWidth=1;fontFamily=Verdana;fontSize=10;align=center;" parent="obIJAErb1e5xh0QblmXE-274" vertex="1">
          <mxGeometry x="146" y="35.5" width="112" height="70" as="geometry" />
        </mxCell>
        <mxCell id="obIJAErb1e5xh0QblmXE-277" value="keyboard.&lt;br&gt;on_release()" style="shape=folder;fontStyle=1;spacingTop=10;tabWidth=50;tabHeight=17;tabPosition=left;html=1;rounded=0;shadow=0;comic=0;labelBackgroundColor=none;strokeWidth=1;fontFamily=Verdana;fontSize=10;align=center;" parent="obIJAErb1e5xh0QblmXE-274" vertex="1">
          <mxGeometry x="18" y="115.5" width="112" height="70" as="geometry" />
        </mxCell>
        <mxCell id="obIJAErb1e5xh0QblmXE-278" value="keyboard.&lt;br&gt;unhook_all()" style="shape=folder;fontStyle=1;spacingTop=10;tabWidth=50;tabHeight=17;tabPosition=left;html=1;rounded=0;shadow=0;comic=0;labelBackgroundColor=none;strokeWidth=1;fontFamily=Verdana;fontSize=10;align=center;" parent="obIJAErb1e5xh0QblmXE-274" vertex="1">
          <mxGeometry x="146" y="115.5" width="112" height="70" as="geometry" />
        </mxCell>
        <mxCell id="6e0c8c40b5770093-6" value="" style="group" parent="1" vertex="1" connectable="0">
          <mxGeometry x="622" y="114.5" width="130" height="70" as="geometry" />
        </mxCell>
        <mxCell id="6e0c8c40b5770093-4" value="Пользовательский&lt;br&gt;&amp;nbsp;интерфейс" style="shape=folder;fontStyle=1;spacingTop=10;tabWidth=50;tabHeight=17;tabPosition=left;html=1;rounded=0;shadow=0;comic=0;labelBackgroundColor=none;strokeWidth=1;fontFamily=Verdana;fontSize=10;align=center;" parent="6e0c8c40b5770093-6" vertex="1">
          <mxGeometry width="130" height="70" as="geometry" />
        </mxCell>
        <mxCell id="obIJAErb1e5xh0QblmXE-1" value="Диаграмма пакетов продукта &quot;Ethical Keylogger-Stealer&quot;" style="text;html=1;strokeColor=none;fillColor=none;align=center;verticalAlign=middle;whiteSpace=wrap;rounded=0;fontSize=60;fontStyle=1" parent="1" vertex="1">
          <mxGeometry x="1180" y="-70" width="1940.75" height="20" as="geometry" />
        </mxCell>
        <mxCell id="obIJAErb1e5xh0QblmXE-2" value="" style="group" parent="1" vertex="1" connectable="0">
          <mxGeometry x="1762" y="1740" width="130" height="70" as="geometry" />
        </mxCell>
        <mxCell id="obIJAErb1e5xh0QblmXE-3" value="&lt;span style=&quot;font-family: &amp;#34;helvetica&amp;#34; ; font-size: 12px&quot;&gt;Stealer_Keylogger.py&lt;/span&gt;" style="shape=folder;fontStyle=1;spacingTop=10;tabWidth=50;tabHeight=17;tabPosition=left;html=1;rounded=0;shadow=0;comic=0;labelBackgroundColor=none;strokeWidth=1;fontFamily=Verdana;fontSize=10;align=center;" parent="obIJAErb1e5xh0QblmXE-2" vertex="1">
          <mxGeometry width="130" height="70" as="geometry" />
        </mxCell>
        <mxCell id="obIJAErb1e5xh0QblmXE-5" value="" style="group" parent="1" vertex="1" connectable="0">
          <mxGeometry x="2637" y="1740" width="130" height="70" as="geometry" />
        </mxCell>
        <mxCell id="obIJAErb1e5xh0QblmXE-6" value="&lt;span style=&quot;font-family: &amp;#34;helvetica&amp;#34; ; font-weight: normal&quot;&gt;&lt;font style=&quot;font-size: 12px&quot;&gt;Administrator_Interface_&lt;br&gt;Tools.py&lt;/font&gt;&lt;/span&gt;" style="shape=folder;fontStyle=1;spacingTop=10;tabWidth=50;tabHeight=17;tabPosition=left;html=1;rounded=0;shadow=0;comic=0;labelBackgroundColor=none;strokeWidth=1;fontFamily=Verdana;fontSize=10;align=center;" parent="obIJAErb1e5xh0QblmXE-5" vertex="1">
          <mxGeometry width="130" height="70" as="geometry" />
        </mxCell>
        <mxCell id="obIJAErb1e5xh0QblmXE-56" value="Stealer_Keylogger.py" style="text;html=1;strokeColor=none;fillColor=none;align=center;verticalAlign=middle;whiteSpace=wrap;rounded=0;fontSize=30;fontStyle=1" parent="1" vertex="1">
          <mxGeometry x="-474.8799999999999" y="50" width="739.75" height="20" as="geometry" />
        </mxCell>
        <mxCell id="obIJAErb1e5xh0QblmXE-165" value="Administrator_Interface_Tools.py" style="text;html=1;strokeColor=none;fillColor=none;align=center;verticalAlign=middle;whiteSpace=wrap;rounded=0;fontSize=30;fontStyle=1" parent="1" vertex="1">
          <mxGeometry x="2360" y="80" width="739.75" height="20" as="geometry" />
        </mxCell>
        <mxCell id="obIJAErb1e5xh0QblmXE-168" style="edgeStyle=orthogonalEdgeStyle;rounded=0;orthogonalLoop=1;jettySize=auto;html=1;exitX=0.5;exitY=1;exitDx=0;exitDy=0;fontSize=12;" parent="1" source="obIJAErb1e5xh0QblmXE-56" target="obIJAErb1e5xh0QblmXE-56" edge="1">
          <mxGeometry relative="1" as="geometry" />
        </mxCell>
        <mxCell id="obIJAErb1e5xh0QblmXE-341" style="edgeStyle=orthogonalEdgeStyle;rounded=0;orthogonalLoop=1;jettySize=auto;html=1;exitX=0.5;exitY=1;exitDx=0;exitDy=0;exitPerimeter=0;entryX=0.629;entryY=0.038;entryDx=0;entryDy=0;entryPerimeter=0;dashed=1;endArrow=open;endFill=0;fontFamily=Verdana;fontSize=10;labelBackgroundColor=none;startFill=0;endSize=10;" parent="1" source="obIJAErb1e5xh0QblmXE-171" target="6e0c8c40b5770093-25" edge="1">
          <mxGeometry relative="1" as="geometry" />
        </mxCell>
        <mxCell id="obIJAErb1e5xh0QblmXE-171" value="Kivy Components" style="shape=folder;fontStyle=1;spacingTop=10;tabWidth=50;tabHeight=17;tabPosition=left;html=1;rounded=0;shadow=0;comic=0;labelBackgroundColor=none;strokeWidth=1;fontFamily=Verdana;fontSize=10;align=center;" parent="1" vertex="1">
          <mxGeometry x="-170" y="360" width="130" height="70" as="geometry" />
        </mxCell>
        <mxCell id="obIJAErb1e5xh0QblmXE-342" style="edgeStyle=orthogonalEdgeStyle;rounded=0;orthogonalLoop=1;jettySize=auto;html=1;exitX=0;exitY=0;exitDx=0;exitDy=43.5;exitPerimeter=0;entryX=0;entryY=0;entryDx=90;entryDy=17;entryPerimeter=0;dashed=1;endArrow=open;endFill=0;fontFamily=Verdana;fontSize=10;labelBackgroundColor=none;startFill=0;endSize=10;" parent="1" source="obIJAErb1e5xh0QblmXE-189" target="obIJAErb1e5xh0QblmXE-171" edge="1">
          <mxGeometry relative="1" as="geometry" />
        </mxCell>
        <mxCell id="obIJAErb1e5xh0QblmXE-189" value="Поля для ввода" style="shape=folder;fontStyle=1;spacingTop=10;tabWidth=50;tabHeight=17;tabPosition=left;html=1;rounded=0;shadow=0;comic=0;labelBackgroundColor=none;strokeWidth=1;fontFamily=Verdana;fontSize=10;align=center;" parent="1" vertex="1">
          <mxGeometry x="408" y="270" width="112" height="70" as="geometry" />
        </mxCell>
        <mxCell id="obIJAErb1e5xh0QblmXE-259" style="edgeStyle=orthogonalEdgeStyle;rounded=0;orthogonalLoop=1;jettySize=auto;html=1;exitX=0.75;exitY=1;exitDx=0;exitDy=0;exitPerimeter=0;entryX=0;entryY=0;entryDx=81;entryDy=17;entryPerimeter=0;dashed=1;endArrow=open;endFill=0;fontFamily=Verdana;fontSize=10;labelBackgroundColor=none;startFill=0;endSize=10;" parent="1" source="obIJAErb1e5xh0QblmXE-190" target="obIJAErb1e5xh0QblmXE-206" edge="1">
          <mxGeometry relative="1" as="geometry">
            <Array as="points">
              <mxPoint x="669" y="340" />
              <mxPoint x="669" y="370" />
              <mxPoint x="879" y="370" />
            </Array>
          </mxGeometry>
        </mxCell>
        <mxCell id="obIJAErb1e5xh0QblmXE-309" style="edgeStyle=orthogonalEdgeStyle;rounded=0;orthogonalLoop=1;jettySize=auto;html=1;exitX=0.25;exitY=1;exitDx=0;exitDy=0;exitPerimeter=0;entryX=0.438;entryY=0.286;entryDx=0;entryDy=0;entryPerimeter=0;dashed=1;endArrow=open;endFill=0;fontFamily=Verdana;fontSize=10;labelBackgroundColor=none;startFill=0;endSize=10;" parent="1" source="obIJAErb1e5xh0QblmXE-190" target="obIJAErb1e5xh0QblmXE-205" edge="1">
          <mxGeometry relative="1" as="geometry" />
        </mxCell>
        <mxCell id="obIJAErb1e5xh0QblmXE-329" style="edgeStyle=orthogonalEdgeStyle;rounded=0;orthogonalLoop=1;jettySize=auto;html=1;exitX=0;exitY=0;exitDx=112;exitDy=70;exitPerimeter=0;entryX=0;entryY=0;entryDx=25;entryDy=0;entryPerimeter=0;dashed=1;endArrow=open;endFill=0;fontFamily=Verdana;fontSize=10;labelBackgroundColor=none;startFill=0;endSize=10;" parent="1" source="obIJAErb1e5xh0QblmXE-190" target="obIJAErb1e5xh0QblmXE-208" edge="1">
          <mxGeometry relative="1" as="geometry">
            <Array as="points">
              <mxPoint x="710" y="340" />
              <mxPoint x="710" y="370" />
              <mxPoint x="1716" y="370" />
            </Array>
          </mxGeometry>
        </mxCell>
        <mxCell id="obIJAErb1e5xh0QblmXE-343" style="edgeStyle=orthogonalEdgeStyle;rounded=0;orthogonalLoop=1;jettySize=auto;html=1;exitX=0;exitY=0;exitDx=0;exitDy=43.5;exitPerimeter=0;entryX=0;entryY=0;entryDx=90;entryDy=17;entryPerimeter=0;dashed=1;endArrow=open;endFill=0;fontFamily=Verdana;fontSize=10;labelBackgroundColor=none;startFill=0;endSize=10;" parent="1" source="obIJAErb1e5xh0QblmXE-190" target="obIJAErb1e5xh0QblmXE-171" edge="1">
          <mxGeometry relative="1" as="geometry">
            <Array as="points">
              <mxPoint x="590" y="314" />
              <mxPoint x="590" y="250" />
              <mxPoint x="-80" y="250" />
            </Array>
          </mxGeometry>
        </mxCell>
        <mxCell id="obIJAErb1e5xh0QblmXE-368" style="edgeStyle=orthogonalEdgeStyle;rounded=0;orthogonalLoop=1;jettySize=auto;html=1;exitX=0.75;exitY=1;exitDx=0;exitDy=0;exitPerimeter=0;entryX=0;entryY=0;entryDx=81;entryDy=17;entryPerimeter=0;dashed=1;endArrow=open;endFill=0;fontFamily=Verdana;fontSize=10;labelBackgroundColor=none;startFill=0;endSize=10;" parent="1" source="obIJAErb1e5xh0QblmXE-190" target="obIJAErb1e5xh0QblmXE-207" edge="1">
          <mxGeometry relative="1" as="geometry" />
        </mxCell>
        <mxCell id="obIJAErb1e5xh0QblmXE-190" value="Кнопки" style="shape=folder;fontStyle=1;spacingTop=10;tabWidth=50;tabHeight=17;tabPosition=left;html=1;rounded=0;shadow=0;comic=0;labelBackgroundColor=none;strokeWidth=1;fontFamily=Verdana;fontSize=10;align=center;" parent="1" vertex="1">
          <mxGeometry x="613" y="270" width="112" height="70" as="geometry" />
        </mxCell>
        <mxCell id="obIJAErb1e5xh0QblmXE-195" value="" style="group" parent="1" vertex="1" connectable="0">
          <mxGeometry x="80" y="420" width="280" height="390" as="geometry" />
        </mxCell>
        <mxCell id="obIJAErb1e5xh0QblmXE-196" value="" style="shape=folder;fontStyle=1;spacingTop=10;tabWidth=123;tabHeight=24;tabPosition=left;html=1;rounded=0;shadow=0;comic=0;labelBackgroundColor=none;strokeWidth=1;fontFamily=Verdana;fontSize=10;align=center;" parent="obIJAErb1e5xh0QblmXE-195" vertex="1">
          <mxGeometry width="280" height="390" as="geometry" />
        </mxCell>
        <mxCell id="obIJAErb1e5xh0QblmXE-198" value="Email&lt;br&gt;email_input" style="shape=folder;fontStyle=1;spacingTop=10;tabWidth=50;tabHeight=17;tabPosition=left;html=1;rounded=0;shadow=0;comic=0;labelBackgroundColor=none;strokeWidth=1;fontFamily=Verdana;fontSize=10;align=center;" parent="obIJAErb1e5xh0QblmXE-195" vertex="1">
          <mxGeometry x="20" y="40" width="112" height="70" as="geometry" />
        </mxCell>
        <mxCell id="obIJAErb1e5xh0QblmXE-197" value="Пароль&lt;br&gt;password_input" style="shape=folder;fontStyle=1;spacingTop=10;tabWidth=50;tabHeight=17;tabPosition=left;html=1;rounded=0;shadow=0;comic=0;labelBackgroundColor=none;strokeWidth=1;fontFamily=Verdana;fontSize=10;align=center;" parent="obIJAErb1e5xh0QblmXE-195" vertex="1">
          <mxGeometry x="150" y="40" width="112" height="70" as="geometry" />
        </mxCell>
        <mxCell id="obIJAErb1e5xh0QblmXE-199" value="Email получателя&lt;br&gt;receiver_email_&lt;br&gt;input" style="shape=folder;fontStyle=1;spacingTop=10;tabWidth=50;tabHeight=17;tabPosition=left;html=1;rounded=0;shadow=0;comic=0;labelBackgroundColor=none;strokeWidth=1;fontFamily=Verdana;fontSize=10;align=center;" parent="obIJAErb1e5xh0QblmXE-195" vertex="1">
          <mxGeometry x="20" y="160" width="112" height="70" as="geometry" />
        </mxCell>
        <mxCell id="obIJAErb1e5xh0QblmXE-201" value="Мастер-ключ&lt;br&gt;master_key_input" style="shape=folder;fontStyle=1;spacingTop=10;tabWidth=50;tabHeight=17;tabPosition=left;html=1;rounded=0;shadow=0;comic=0;labelBackgroundColor=none;strokeWidth=1;fontFamily=Verdana;fontSize=10;align=center;" parent="obIJAErb1e5xh0QblmXE-195" vertex="1">
          <mxGeometry x="150" y="160" width="112" height="70" as="geometry" />
        </mxCell>
        <mxCell id="obIJAErb1e5xh0QblmXE-200" value="Согласие&lt;br&gt;consent_input" style="shape=folder;fontStyle=1;spacingTop=10;tabWidth=50;tabHeight=17;tabPosition=left;html=1;rounded=0;shadow=0;comic=0;labelBackgroundColor=none;strokeWidth=1;fontFamily=Verdana;fontSize=10;align=center;" parent="obIJAErb1e5xh0QblmXE-195" vertex="1">
          <mxGeometry x="20" y="280" width="112" height="70" as="geometry" />
        </mxCell>
        <mxCell id="kIz9dwGKQSJNEWu8HIwC-4" value="Поля ввода" style="text;html=1;strokeColor=none;fillColor=none;align=center;verticalAlign=middle;whiteSpace=wrap;rounded=0;" vertex="1" parent="obIJAErb1e5xh0QblmXE-195">
          <mxGeometry x="9" y="-3" width="109" height="30" as="geometry" />
        </mxCell>
        <mxCell id="obIJAErb1e5xh0QblmXE-202" style="edgeStyle=elbowEdgeStyle;rounded=0;html=1;dashed=1;labelBackgroundColor=none;startFill=0;endArrow=open;endFill=0;endSize=10;fontFamily=Verdana;fontSize=10;entryX=1.024;entryY=0.118;entryDx=0;entryDy=0;entryPerimeter=0;" parent="1" target="obIJAErb1e5xh0QblmXE-196" edge="1">
          <mxGeometry relative="1" as="geometry">
            <mxPoint x="430.04" y="340" as="sourcePoint" />
            <mxPoint x="430.04000000000093" y="438.99999999999955" as="targetPoint" />
            <Array as="points">
              <mxPoint x="430.00000000000097" y="397.9599999999998" />
            </Array>
          </mxGeometry>
        </mxCell>
        <mxCell id="obIJAErb1e5xh0QblmXE-317" style="edgeStyle=orthogonalEdgeStyle;rounded=0;orthogonalLoop=1;jettySize=auto;html=1;exitX=0.5;exitY=1;exitDx=0;exitDy=0;exitPerimeter=0;entryX=0.52;entryY=0.116;entryDx=0;entryDy=0;entryPerimeter=0;dashed=1;endArrow=open;endFill=0;fontFamily=Verdana;fontSize=10;labelBackgroundColor=none;startFill=0;endSize=10;" parent="1" source="obIJAErb1e5xh0QblmXE-207" target="obIJAErb1e5xh0QblmXE-313" edge="1">
          <mxGeometry relative="1" as="geometry" />
        </mxCell>
        <mxCell id="obIJAErb1e5xh0QblmXE-207" value="Вывести &lt;br&gt;статистику&lt;br&gt;show_statistics &lt;br&gt;(self, instance)" style="shape=folder;fontStyle=1;spacingTop=10;tabWidth=50;tabHeight=17;tabPosition=left;html=1;rounded=0;shadow=0;comic=0;labelBackgroundColor=none;strokeWidth=1;fontFamily=Verdana;fontSize=10;align=center;" parent="1" vertex="1">
          <mxGeometry x="1430" y="400" width="112" height="70" as="geometry" />
        </mxCell>
        <mxCell id="obIJAErb1e5xh0QblmXE-333" style="edgeStyle=orthogonalEdgeStyle;rounded=0;orthogonalLoop=1;jettySize=auto;html=1;exitX=0.5;exitY=1;exitDx=0;exitDy=0;exitPerimeter=0;entryX=0.585;entryY=0.221;entryDx=0;entryDy=0;entryPerimeter=0;dashed=1;endArrow=open;endFill=0;fontFamily=Verdana;fontSize=10;labelBackgroundColor=none;startFill=0;endSize=10;" parent="1" source="obIJAErb1e5xh0QblmXE-208" target="obIJAErb1e5xh0QblmXE-330" edge="1">
          <mxGeometry relative="1" as="geometry" />
        </mxCell>
        <mxCell id="obIJAErb1e5xh0QblmXE-208" value="Закрыть &lt;br&gt;программу&lt;br&gt;close_program&amp;nbsp;&lt;br&gt;(self, instance)" style="shape=folder;fontStyle=1;spacingTop=10;tabWidth=50;tabHeight=17;tabPosition=left;html=1;rounded=0;shadow=0;comic=0;labelBackgroundColor=none;strokeWidth=1;fontFamily=Verdana;fontSize=10;align=center;" parent="1" vertex="1">
          <mxGeometry x="1690.5" y="400" width="112" height="70" as="geometry" />
        </mxCell>
        <mxCell id="obIJAErb1e5xh0QblmXE-362" style="edgeStyle=orthogonalEdgeStyle;rounded=0;orthogonalLoop=1;jettySize=auto;html=1;exitX=0.5;exitY=1;exitDx=0;exitDy=0;exitPerimeter=0;entryX=0.42;entryY=0.162;entryDx=0;entryDy=0;entryPerimeter=0;dashed=1;endArrow=open;endFill=0;fontFamily=Verdana;fontSize=10;labelBackgroundColor=none;startFill=0;endSize=10;" parent="1" source="obIJAErb1e5xh0QblmXE-205" target="obIJAErb1e5xh0QblmXE-358" edge="1">
          <mxGeometry relative="1" as="geometry" />
        </mxCell>
        <mxCell id="obIJAErb1e5xh0QblmXE-205" value="Начать поиск &lt;br&gt;файлов с паролями&lt;br&gt;start_search(self, &lt;br&gt;instance)" style="shape=folder;fontStyle=1;spacingTop=10;tabWidth=50;tabHeight=17;tabPosition=left;html=1;rounded=0;shadow=0;comic=0;labelBackgroundColor=none;strokeWidth=1;fontFamily=Verdana;fontSize=10;align=center;" parent="1" vertex="1">
          <mxGeometry x="580" y="390" width="140" height="80" as="geometry" />
        </mxCell>
        <mxCell id="obIJAErb1e5xh0QblmXE-369" style="edgeStyle=orthogonalEdgeStyle;rounded=0;orthogonalLoop=1;jettySize=auto;html=1;exitX=0.75;exitY=1;exitDx=0;exitDy=0;exitPerimeter=0;entryX=0;entryY=0;entryDx=251.5;entryDy=24;entryPerimeter=0;dashed=1;endArrow=open;endFill=0;fontFamily=Verdana;fontSize=10;labelBackgroundColor=none;startFill=0;endSize=10;" parent="1" source="obIJAErb1e5xh0QblmXE-206" target="obIJAErb1e5xh0QblmXE-364" edge="1">
          <mxGeometry relative="1" as="geometry" />
        </mxCell>
        <mxCell id="obIJAErb1e5xh0QblmXE-206" value="Запустить &lt;br&gt;кейлоггер&lt;br&gt;&amp;nbsp;start_keylogger&lt;br&gt;(self, instance)" style="shape=folder;fontStyle=1;spacingTop=10;tabWidth=50;tabHeight=17;tabPosition=left;html=1;rounded=0;shadow=0;comic=0;labelBackgroundColor=none;strokeWidth=1;fontFamily=Verdana;fontSize=10;align=center;" parent="1" vertex="1">
          <mxGeometry x="798" y="390" width="112" height="80" as="geometry" />
        </mxCell>
        <mxCell id="obIJAErb1e5xh0QblmXE-256" style="edgeStyle=orthogonalEdgeStyle;rounded=0;orthogonalLoop=1;jettySize=auto;html=1;exitX=0;exitY=0;exitDx=0;exitDy=43.5;exitPerimeter=0;entryX=0;entryY=0;entryDx=112;entryDy=43.5;entryPerimeter=0;dashed=1;endArrow=open;endFill=0;fontFamily=Verdana;fontSize=10;labelBackgroundColor=none;startFill=0;endSize=10;" parent="1" source="obIJAErb1e5xh0QblmXE-237" target="obIJAErb1e5xh0QblmXE-190" edge="1">
          <mxGeometry relative="1" as="geometry" />
        </mxCell>
        <mxCell id="obIJAErb1e5xh0QblmXE-288" style="edgeStyle=orthogonalEdgeStyle;rounded=0;orthogonalLoop=1;jettySize=auto;html=1;exitX=0;exitY=0;exitDx=112;exitDy=43.5;exitPerimeter=0;dashed=1;endArrow=open;endFill=0;fontFamily=Helvetica;fontSize=12;endSize=10;" parent="1" source="obIJAErb1e5xh0QblmXE-237" edge="1">
          <mxGeometry relative="1" as="geometry">
            <mxPoint x="330" y="443" as="targetPoint" />
            <Array as="points">
              <mxPoint x="966" y="314" />
              <mxPoint x="966" y="90" />
              <mxPoint x="330" y="90" />
            </Array>
          </mxGeometry>
        </mxCell>
        <mxCell id="obIJAErb1e5xh0QblmXE-312" style="edgeStyle=orthogonalEdgeStyle;rounded=0;orthogonalLoop=1;jettySize=auto;html=1;exitX=0;exitY=0;exitDx=112;exitDy=56.75;exitPerimeter=0;entryX=0;entryY=0;entryDx=112;entryDy=43.5;entryPerimeter=0;dashed=1;endArrow=open;endFill=0;fontFamily=Verdana;fontSize=10;labelBackgroundColor=none;startFill=0;endSize=10;" parent="1" source="obIJAErb1e5xh0QblmXE-237" target="obIJAErb1e5xh0QblmXE-207" edge="1">
          <mxGeometry relative="1" as="geometry" />
        </mxCell>
        <mxCell id="obIJAErb1e5xh0QblmXE-344" style="edgeStyle=orthogonalEdgeStyle;rounded=0;orthogonalLoop=1;jettySize=auto;html=1;exitX=0;exitY=0;exitDx=0;exitDy=17;exitPerimeter=0;dashed=1;endArrow=open;endFill=0;fontFamily=Verdana;fontSize=10;entryX=0;entryY=0;entryDx=90;entryDy=17;entryPerimeter=0;labelBackgroundColor=none;startFill=0;endSize=10;" parent="1" source="obIJAErb1e5xh0QblmXE-237" target="obIJAErb1e5xh0QblmXE-171" edge="1">
          <mxGeometry relative="1" as="geometry">
            <mxPoint x="80" y="400" as="targetPoint" />
            <Array as="points">
              <mxPoint x="890" y="287" />
              <mxPoint x="890" y="210" />
              <mxPoint x="-80" y="210" />
            </Array>
          </mxGeometry>
        </mxCell>
        <mxCell id="obIJAErb1e5xh0QblmXE-237" value="Уведомления" style="shape=folder;fontStyle=1;spacingTop=10;tabWidth=50;tabHeight=17;tabPosition=left;html=1;rounded=0;shadow=0;comic=0;labelBackgroundColor=none;strokeWidth=1;fontFamily=Verdana;fontSize=10;align=center;" parent="1" vertex="1">
          <mxGeometry x="834" y="270" width="112" height="70" as="geometry" />
        </mxCell>
        <mxCell id="obIJAErb1e5xh0QblmXE-239" style="edgeStyle=orthogonalEdgeStyle;rounded=0;orthogonalLoop=1;jettySize=auto;html=1;exitX=0;exitY=0;exitDx=0;exitDy=43.5;exitPerimeter=0;entryX=0;entryY=0;entryDx=81;entryDy=17;entryPerimeter=0;dashed=1;endArrow=open;endFill=0;fontFamily=Verdana;fontSize=10;labelBackgroundColor=none;startFill=0;endSize=10;" parent="1" source="6e0c8c40b5770093-4" target="obIJAErb1e5xh0QblmXE-189" edge="1">
          <mxGeometry relative="1" as="geometry" />
        </mxCell>
        <mxCell id="obIJAErb1e5xh0QblmXE-240" style="edgeStyle=orthogonalEdgeStyle;rounded=0;orthogonalLoop=1;jettySize=auto;html=1;exitX=0.5;exitY=1;exitDx=0;exitDy=0;exitPerimeter=0;dashed=1;endArrow=open;endFill=0;fontFamily=Verdana;fontSize=10;labelBackgroundColor=none;startFill=0;endSize=10;" parent="1" source="6e0c8c40b5770093-4" edge="1">
          <mxGeometry relative="1" as="geometry">
            <mxPoint x="687" y="287" as="targetPoint" />
            <Array as="points">
              <mxPoint x="687" y="287" />
            </Array>
          </mxGeometry>
        </mxCell>
        <mxCell id="obIJAErb1e5xh0QblmXE-241" style="edgeStyle=orthogonalEdgeStyle;rounded=0;orthogonalLoop=1;jettySize=auto;html=1;exitX=0;exitY=0;exitDx=130;exitDy=43.5;exitPerimeter=0;entryX=0;entryY=0;entryDx=81;entryDy=17;entryPerimeter=0;dashed=1;endArrow=open;endFill=0;fontFamily=Verdana;fontSize=10;labelBackgroundColor=none;startFill=0;endSize=10;" parent="1" source="6e0c8c40b5770093-4" target="obIJAErb1e5xh0QblmXE-237" edge="1">
          <mxGeometry relative="1" as="geometry" />
        </mxCell>
        <mxCell id="6e0c8c40b5770093-25" value="" style="shape=folder;fontStyle=1;spacingTop=10;tabWidth=123;tabHeight=24;tabPosition=left;html=1;rounded=0;shadow=0;comic=0;labelBackgroundColor=none;strokeWidth=1;fontFamily=Verdana;fontSize=10;align=center;" parent="1" vertex="1">
          <mxGeometry x="-250" y="500" width="230" height="800" as="geometry" />
        </mxCell>
        <mxCell id="obIJAErb1e5xh0QblmXE-177" value="TextInput" style="shape=folder;fontStyle=1;spacingTop=10;tabWidth=50;tabHeight=17;tabPosition=left;html=1;rounded=0;shadow=0;comic=0;labelBackgroundColor=none;strokeWidth=1;fontFamily=Verdana;fontSize=10;align=center;" parent="1" vertex="1">
          <mxGeometry x="-200" y="559.4986519580402" width="130" height="85.41114058355437" as="geometry" />
        </mxCell>
        <mxCell id="obIJAErb1e5xh0QblmXE-179" value="Button" style="shape=folder;fontStyle=1;spacingTop=10;tabWidth=50;tabHeight=17;tabPosition=left;html=1;rounded=0;shadow=0;comic=0;labelBackgroundColor=none;strokeWidth=1;fontFamily=Verdana;fontSize=10;align=center;" parent="1" vertex="1">
          <mxGeometry x="-200" y="670.0019778678463" width="130" height="85.41114058355437" as="geometry" />
        </mxCell>
        <mxCell id="obIJAErb1e5xh0QblmXE-183" value="Popup" style="shape=folder;fontStyle=1;spacingTop=10;tabWidth=50;tabHeight=17;tabPosition=left;html=1;rounded=0;shadow=0;comic=0;labelBackgroundColor=none;strokeWidth=1;fontFamily=Verdana;fontSize=10;align=center;" parent="1" vertex="1">
          <mxGeometry x="-200" y="780.9337931034484" width="130" height="80.64544650751547" as="geometry" />
        </mxCell>
        <mxCell id="obIJAErb1e5xh0QblmXE-181" value="Label" style="shape=folder;fontStyle=1;spacingTop=10;tabWidth=50;tabHeight=17;tabPosition=left;html=1;rounded=0;shadow=0;comic=0;labelBackgroundColor=none;strokeWidth=1;fontFamily=Verdana;fontSize=10;align=center;" parent="1" vertex="1">
          <mxGeometry x="-200" y="885.0880743071996" width="130" height="85.41114058355437" as="geometry" />
        </mxCell>
        <mxCell id="obIJAErb1e5xh0QblmXE-185" value="BoxLayout" style="shape=folder;fontStyle=1;spacingTop=10;tabWidth=50;tabHeight=17;tabPosition=left;html=1;rounded=0;shadow=0;comic=0;labelBackgroundColor=none;strokeWidth=1;fontFamily=Verdana;fontSize=10;align=center;" parent="1" vertex="1">
          <mxGeometry x="-200" y="990.93" width="130" height="79.07" as="geometry" />
        </mxCell>
        <mxCell id="obIJAErb1e5xh0QblmXE-263" value="GridLayout" style="shape=folder;fontStyle=1;spacingTop=10;tabWidth=50;tabHeight=17;tabPosition=left;html=1;rounded=0;shadow=0;comic=0;labelBackgroundColor=none;strokeWidth=1;fontFamily=Verdana;fontSize=10;align=center;" parent="1" vertex="1">
          <mxGeometry x="-200" y="1090" width="130" height="80" as="geometry" />
        </mxCell>
        <mxCell id="obIJAErb1e5xh0QblmXE-412" style="edgeStyle=orthogonalEdgeStyle;rounded=0;orthogonalLoop=1;jettySize=auto;html=1;exitX=0.5;exitY=1;exitDx=0;exitDy=0;exitPerimeter=0;dashed=1;endArrow=open;endFill=0;fontFamily=Verdana;fontSize=10;labelBackgroundColor=none;startFill=0;endSize=10;" parent="1" source="obIJAErb1e5xh0QblmXE-291" edge="1">
          <mxGeometry relative="1" as="geometry">
            <mxPoint x="765" y="1420" as="targetPoint" />
          </mxGeometry>
        </mxCell>
        <mxCell id="obIJAErb1e5xh0QblmXE-291" value="&lt;span style=&quot;font-family: &amp;#34;helvetica&amp;#34; ; font-size: 12px&quot;&gt;smtplib&lt;/span&gt;" style="shape=folder;fontStyle=1;spacingTop=10;tabWidth=50;tabHeight=17;tabPosition=left;html=1;rounded=0;shadow=0;comic=0;labelBackgroundColor=none;strokeWidth=1;fontFamily=Verdana;fontSize=10;align=center;" parent="1" vertex="1">
          <mxGeometry x="709.5" y="1290" width="112" height="70" as="geometry" />
        </mxCell>
        <mxCell id="obIJAErb1e5xh0QblmXE-294" value="hashlib" style="shape=folder;fontStyle=1;spacingTop=10;tabWidth=50;tabHeight=17;tabPosition=left;html=1;rounded=0;shadow=0;comic=0;labelBackgroundColor=none;strokeWidth=1;fontFamily=Verdana;fontSize=10;align=center;" parent="1" vertex="1">
          <mxGeometry x="1130" y="954.5" width="112" height="70" as="geometry" />
        </mxCell>
        <mxCell id="obIJAErb1e5xh0QblmXE-295" value="hash_string()" style="shape=folder;fontStyle=1;spacingTop=10;tabWidth=50;tabHeight=17;tabPosition=left;html=1;rounded=0;shadow=0;comic=0;labelBackgroundColor=none;strokeWidth=1;fontFamily=Verdana;fontSize=10;align=center;" parent="1" vertex="1">
          <mxGeometry x="1004" y="955" width="112" height="70" as="geometry" />
        </mxCell>
        <mxCell id="obIJAErb1e5xh0QblmXE-297" value="" style="shape=folder;fontStyle=1;spacingTop=10;tabWidth=123;tabHeight=24;tabPosition=left;html=1;rounded=0;shadow=0;comic=0;labelBackgroundColor=none;strokeWidth=1;fontFamily=Verdana;fontSize=10;align=center;" parent="1" vertex="1">
          <mxGeometry x="630.5" y="750" width="280" height="210" as="geometry" />
        </mxCell>
        <mxCell id="obIJAErb1e5xh0QblmXE-298" value="" style="group" parent="1" vertex="1" connectable="0">
          <mxGeometry x="636" y="820" width="280" height="260" as="geometry" />
        </mxCell>
        <mxCell id="obIJAErb1e5xh0QblmXE-299" value="os.path" style="shape=folder;fontStyle=1;spacingTop=10;tabWidth=50;tabHeight=17;tabPosition=left;html=1;rounded=0;shadow=0;comic=0;labelBackgroundColor=none;strokeWidth=1;fontFamily=Verdana;fontSize=10;align=center;" parent="obIJAErb1e5xh0QblmXE-298" vertex="1">
          <mxGeometry x="10.5" y="-24.5" width="114" height="70" as="geometry" />
        </mxCell>
        <mxCell id="obIJAErb1e5xh0QblmXE-408" style="edgeStyle=orthogonalEdgeStyle;rounded=0;orthogonalLoop=1;jettySize=auto;html=1;exitX=0;exitY=0;exitDx=0;exitDy=48.5;exitPerimeter=0;entryX=0.5;entryY=1;entryDx=0;entryDy=0;entryPerimeter=0;dashed=1;endArrow=open;endFill=0;fontFamily=Verdana;fontSize=10;labelBackgroundColor=none;startFill=0;endSize=10;" parent="1" source="obIJAErb1e5xh0QblmXE-304" target="obIJAErb1e5xh0QblmXE-196" edge="1">
          <mxGeometry relative="1" as="geometry" />
        </mxCell>
        <mxCell id="obIJAErb1e5xh0QblmXE-411" style="edgeStyle=orthogonalEdgeStyle;rounded=0;orthogonalLoop=1;jettySize=auto;html=1;exitX=0.5;exitY=1;exitDx=0;exitDy=0;exitPerimeter=0;dashed=1;endArrow=open;endFill=0;fontFamily=Verdana;fontSize=10;labelBackgroundColor=none;startFill=0;endSize=10;" parent="1" source="obIJAErb1e5xh0QblmXE-304" edge="1">
          <mxGeometry relative="1" as="geometry">
            <mxPoint x="766" y="1310" as="targetPoint" />
          </mxGeometry>
        </mxCell>
        <mxCell id="obIJAErb1e5xh0QblmXE-304" value="send_email(subject, content, &#xa;sender_email, &#xa;password, &#xa;receiver_email)" style="shape=folder;fontStyle=1;spacingTop=10;tabWidth=50;tabHeight=17;tabPosition=left;rounded=0;shadow=0;comic=0;labelBackgroundColor=none;strokeWidth=1;fontFamily=Helvetica;fontSize=12;align=center;" parent="1" vertex="1">
          <mxGeometry x="680.5" y="1150" width="170" height="80" as="geometry" />
        </mxCell>
        <mxCell id="obIJAErb1e5xh0QblmXE-305" value="hashlib" style="shape=folder;fontStyle=1;spacingTop=10;tabWidth=50;tabHeight=17;tabPosition=left;html=1;rounded=0;shadow=0;comic=0;labelBackgroundColor=none;strokeWidth=1;fontFamily=Verdana;fontSize=10;align=center;" parent="1" vertex="1">
          <mxGeometry x="774.5" y="797.71" width="112" height="70" as="geometry" />
        </mxCell>
        <mxCell id="obIJAErb1e5xh0QblmXE-314" value="global &lt;br&gt;password_files" style="shape=folder;fontStyle=1;spacingTop=10;tabWidth=50;tabHeight=17;tabPosition=left;html=1;rounded=0;shadow=0;comic=0;labelBackgroundColor=none;strokeWidth=1;fontFamily=Verdana;fontSize=10;align=center;" parent="1" vertex="1">
          <mxGeometry x="1352" y="549" width="114" height="70" as="geometry" />
        </mxCell>
        <mxCell id="obIJAErb1e5xh0QblmXE-315" value="global &lt;br&gt;key_combination_&lt;br&gt;count" style="shape=folder;fontStyle=1;spacingTop=10;tabWidth=50;tabHeight=17;tabPosition=left;html=1;rounded=0;shadow=0;comic=0;labelBackgroundColor=none;strokeWidth=1;fontFamily=Verdana;fontSize=10;align=center;" parent="1" vertex="1">
          <mxGeometry x="1490" y="549" width="114" height="70" as="geometry" />
        </mxCell>
        <mxCell id="obIJAErb1e5xh0QblmXE-316" value="time.time() -&amp;nbsp;&lt;br&gt;program_start_time" style="shape=folder;fontStyle=1;spacingTop=10;tabWidth=50;tabHeight=17;tabPosition=left;html=1;rounded=0;shadow=0;comic=0;labelBackgroundColor=none;strokeWidth=1;fontFamily=Verdana;fontSize=10;align=center;" parent="1" vertex="1">
          <mxGeometry x="1352" y="634.5" width="114" height="70" as="geometry" />
        </mxCell>
        <mxCell id="obIJAErb1e5xh0QblmXE-330" value="exit()" style="shape=folder;fontStyle=1;spacingTop=10;tabWidth=50;tabHeight=17;tabPosition=left;html=1;rounded=0;shadow=0;comic=0;labelBackgroundColor=none;strokeWidth=1;fontFamily=Verdana;fontSize=10;align=center;" parent="1" vertex="1">
          <mxGeometry x="1690.5" y="494.5" width="112" height="70" as="geometry" />
        </mxCell>
        <mxCell id="obIJAErb1e5xh0QblmXE-334" value="" style="group" parent="1" vertex="1" connectable="0">
          <mxGeometry x="3202" y="114.5" width="130" height="70" as="geometry" />
        </mxCell>
        <mxCell id="obIJAErb1e5xh0QblmXE-335" value="Пользовательский&lt;br&gt;&amp;nbsp;интерфейс" style="shape=folder;fontStyle=1;spacingTop=10;tabWidth=50;tabHeight=17;tabPosition=left;html=1;rounded=0;shadow=0;comic=0;labelBackgroundColor=none;strokeWidth=1;fontFamily=Verdana;fontSize=10;align=center;" parent="obIJAErb1e5xh0QblmXE-334" vertex="1">
          <mxGeometry width="130" height="70" as="geometry" />
        </mxCell>
        <mxCell id="obIJAErb1e5xh0QblmXE-380" style="edgeStyle=orthogonalEdgeStyle;rounded=0;orthogonalLoop=1;jettySize=auto;html=1;exitX=0.5;exitY=1;exitDx=0;exitDy=0;exitPerimeter=0;entryX=0.498;entryY=0.091;entryDx=0;entryDy=0;entryPerimeter=0;dashed=1;endArrow=open;endFill=0;fontFamily=Verdana;fontSize=10;labelBackgroundColor=none;startFill=0;endSize=10;" parent="1" source="obIJAErb1e5xh0QblmXE-336" target="obIJAErb1e5xh0QblmXE-374" edge="1">
          <mxGeometry relative="1" as="geometry" />
        </mxCell>
        <mxCell id="obIJAErb1e5xh0QblmXE-395" style="edgeStyle=orthogonalEdgeStyle;rounded=0;orthogonalLoop=1;jettySize=auto;html=1;exitX=0;exitY=0;exitDx=0;exitDy=43.5;exitPerimeter=0;entryX=0;entryY=0;entryDx=90;entryDy=17;entryPerimeter=0;dashed=1;endArrow=open;endFill=0;fontFamily=Verdana;fontSize=10;labelBackgroundColor=none;startFill=0;endSize=10;" parent="1" source="obIJAErb1e5xh0QblmXE-336" target="obIJAErb1e5xh0QblmXE-381" edge="1">
          <mxGeometry relative="1" as="geometry">
            <Array as="points">
              <mxPoint x="2750" y="334" />
            </Array>
          </mxGeometry>
        </mxCell>
        <mxCell id="obIJAErb1e5xh0QblmXE-336" value="Поля для ввода" style="shape=folder;fontStyle=1;spacingTop=10;tabWidth=50;tabHeight=17;tabPosition=left;html=1;rounded=0;shadow=0;comic=0;labelBackgroundColor=none;strokeWidth=1;fontFamily=Verdana;fontSize=10;align=center;" parent="1" vertex="1">
          <mxGeometry x="3000" y="290" width="112" height="70" as="geometry" />
        </mxCell>
        <mxCell id="obIJAErb1e5xh0QblmXE-396" style="edgeStyle=orthogonalEdgeStyle;rounded=0;orthogonalLoop=1;jettySize=auto;html=1;exitX=0;exitY=0;exitDx=0;exitDy=43.5;exitPerimeter=0;entryX=0;entryY=0;entryDx=90;entryDy=17;entryPerimeter=0;dashed=1;endArrow=open;endFill=0;fontFamily=Verdana;fontSize=10;labelBackgroundColor=none;startFill=0;endSize=10;" parent="1" source="obIJAErb1e5xh0QblmXE-337" target="obIJAErb1e5xh0QblmXE-381" edge="1">
          <mxGeometry relative="1" as="geometry">
            <Array as="points">
              <mxPoint x="3190" y="334" />
              <mxPoint x="3190" y="270" />
              <mxPoint x="2750" y="270" />
            </Array>
          </mxGeometry>
        </mxCell>
        <mxCell id="obIJAErb1e5xh0QblmXE-434" style="edgeStyle=orthogonalEdgeStyle;rounded=0;orthogonalLoop=1;jettySize=auto;html=1;exitX=0.25;exitY=1;exitDx=0;exitDy=0;exitPerimeter=0;entryX=0;entryY=0;entryDx=81;entryDy=17;entryPerimeter=0;dashed=1;endArrow=open;endFill=0;fontFamily=Verdana;fontSize=10;labelBackgroundColor=none;startFill=0;endSize=10;" parent="1" source="obIJAErb1e5xh0QblmXE-337" target="obIJAErb1e5xh0QblmXE-421" edge="1">
          <mxGeometry relative="1" as="geometry" />
        </mxCell>
        <mxCell id="obIJAErb1e5xh0QblmXE-435" style="edgeStyle=orthogonalEdgeStyle;rounded=0;orthogonalLoop=1;jettySize=auto;html=1;exitX=0.5;exitY=1;exitDx=0;exitDy=0;exitPerimeter=0;entryX=0;entryY=0;entryDx=81;entryDy=17;entryPerimeter=0;dashed=1;endArrow=open;endFill=0;fontFamily=Verdana;fontSize=10;labelBackgroundColor=none;startFill=0;endSize=10;" parent="1" source="obIJAErb1e5xh0QblmXE-337" target="obIJAErb1e5xh0QblmXE-422" edge="1">
          <mxGeometry relative="1" as="geometry" />
        </mxCell>
        <mxCell id="obIJAErb1e5xh0QblmXE-437" style="edgeStyle=orthogonalEdgeStyle;rounded=0;orthogonalLoop=1;jettySize=auto;html=1;exitX=0.75;exitY=1;exitDx=0;exitDy=0;exitPerimeter=0;entryX=0;entryY=0;entryDx=201.5;entryDy=24;entryPerimeter=0;dashed=1;endArrow=open;endFill=0;fontFamily=Verdana;fontSize=10;labelBackgroundColor=none;startFill=0;endSize=10;" parent="1" source="obIJAErb1e5xh0QblmXE-337" target="obIJAErb1e5xh0QblmXE-423" edge="1">
          <mxGeometry relative="1" as="geometry" />
        </mxCell>
        <mxCell id="obIJAErb1e5xh0QblmXE-438" style="edgeStyle=orthogonalEdgeStyle;rounded=0;orthogonalLoop=1;jettySize=auto;html=1;exitX=0;exitY=0;exitDx=112;exitDy=70;exitPerimeter=0;entryX=0;entryY=0;entryDx=201.5;entryDy=24;entryPerimeter=0;dashed=1;endArrow=open;endFill=0;fontFamily=Verdana;fontSize=10;labelBackgroundColor=none;startFill=0;endSize=10;" parent="1" source="obIJAErb1e5xh0QblmXE-337" target="obIJAErb1e5xh0QblmXE-430" edge="1">
          <mxGeometry relative="1" as="geometry" />
        </mxCell>
        <mxCell id="obIJAErb1e5xh0QblmXE-446" style="edgeStyle=orthogonalEdgeStyle;rounded=0;orthogonalLoop=1;jettySize=auto;html=1;exitX=0;exitY=0;exitDx=0;exitDy=70;exitPerimeter=0;entryX=0;entryY=0;entryDx=201.5;entryDy=24;entryPerimeter=0;dashed=1;endArrow=open;endFill=0;fontFamily=Verdana;fontSize=10;labelBackgroundColor=none;startFill=0;endSize=10;" parent="1" source="obIJAErb1e5xh0QblmXE-337" target="obIJAErb1e5xh0QblmXE-441" edge="1">
          <mxGeometry relative="1" as="geometry" />
        </mxCell>
        <mxCell id="obIJAErb1e5xh0QblmXE-337" value="Кнопки" style="shape=folder;fontStyle=1;spacingTop=10;tabWidth=50;tabHeight=17;tabPosition=left;html=1;rounded=0;shadow=0;comic=0;labelBackgroundColor=none;strokeWidth=1;fontFamily=Verdana;fontSize=10;align=center;" parent="1" vertex="1">
          <mxGeometry x="3211" y="290" width="112" height="70" as="geometry" />
        </mxCell>
        <mxCell id="obIJAErb1e5xh0QblmXE-397" style="edgeStyle=orthogonalEdgeStyle;rounded=0;orthogonalLoop=1;jettySize=auto;html=1;exitX=0;exitY=0;exitDx=0;exitDy=43.5;exitPerimeter=0;entryX=0;entryY=0;entryDx=90;entryDy=17;entryPerimeter=0;dashed=1;endArrow=open;endFill=0;fontFamily=Verdana;fontSize=10;labelBackgroundColor=none;startFill=0;endSize=10;" parent="1" source="obIJAErb1e5xh0QblmXE-338" target="obIJAErb1e5xh0QblmXE-381" edge="1">
          <mxGeometry relative="1" as="geometry">
            <Array as="points">
              <mxPoint x="3400" y="334" />
              <mxPoint x="3400" y="250" />
              <mxPoint x="2750" y="250" />
            </Array>
          </mxGeometry>
        </mxCell>
        <mxCell id="obIJAErb1e5xh0QblmXE-439" style="edgeStyle=orthogonalEdgeStyle;rounded=0;orthogonalLoop=1;jettySize=auto;html=1;exitX=0;exitY=0;exitDx=0;exitDy=56.75;exitPerimeter=0;entryX=0;entryY=0;entryDx=112;entryDy=43.5;entryPerimeter=0;dashed=1;endArrow=open;endFill=0;fontFamily=Verdana;fontSize=10;labelBackgroundColor=none;startFill=0;endSize=10;" parent="1" source="obIJAErb1e5xh0QblmXE-338" target="obIJAErb1e5xh0QblmXE-337" edge="1">
          <mxGeometry relative="1" as="geometry" />
        </mxCell>
        <mxCell id="obIJAErb1e5xh0QblmXE-440" style="edgeStyle=orthogonalEdgeStyle;rounded=0;orthogonalLoop=1;jettySize=auto;html=1;exitX=0.5;exitY=1;exitDx=0;exitDy=0;exitPerimeter=0;entryX=0.75;entryY=1;entryDx=0;entryDy=0;entryPerimeter=0;dashed=1;endArrow=open;endFill=0;fontFamily=Verdana;fontSize=10;labelBackgroundColor=none;startFill=0;endSize=10;" parent="1" source="obIJAErb1e5xh0QblmXE-338" target="obIJAErb1e5xh0QblmXE-336" edge="1">
          <mxGeometry relative="1" as="geometry" />
        </mxCell>
        <mxCell id="obIJAErb1e5xh0QblmXE-338" value="Уведомления" style="shape=folder;fontStyle=1;spacingTop=10;tabWidth=50;tabHeight=17;tabPosition=left;html=1;rounded=0;shadow=0;comic=0;labelBackgroundColor=none;strokeWidth=1;fontFamily=Verdana;fontSize=10;align=center;" parent="1" vertex="1">
          <mxGeometry x="3420" y="290" width="112" height="70" as="geometry" />
        </mxCell>
        <mxCell id="obIJAErb1e5xh0QblmXE-345" style="edgeStyle=orthogonalEdgeStyle;rounded=0;orthogonalLoop=1;jettySize=auto;html=1;exitX=0;exitY=0;exitDx=0;exitDy=207;exitPerimeter=0;entryX=0;entryY=0;entryDx=130;entryDy=43.5;entryPerimeter=0;dashed=1;endArrow=open;endFill=0;fontFamily=Verdana;fontSize=10;labelBackgroundColor=none;startFill=0;endSize=10;" parent="1" source="obIJAErb1e5xh0QblmXE-196" target="obIJAErb1e5xh0QblmXE-171" edge="1">
          <mxGeometry relative="1" as="geometry" />
        </mxCell>
        <mxCell id="obIJAErb1e5xh0QblmXE-351" value="Kivy.Popup" style="shape=folder;fontStyle=1;spacingTop=10;tabWidth=50;tabHeight=17;tabPosition=left;html=1;rounded=0;shadow=0;comic=0;labelBackgroundColor=none;strokeWidth=1;fontFamily=Verdana;fontSize=10;align=center;" parent="1" vertex="1">
          <mxGeometry x="1490" y="634.5" width="114" height="70" as="geometry" />
        </mxCell>
        <mxCell id="obIJAErb1e5xh0QblmXE-353" value="Kivy.Popup" style="shape=folder;fontStyle=1;spacingTop=10;tabWidth=50;tabHeight=17;tabPosition=left;html=1;rounded=0;shadow=0;comic=0;labelBackgroundColor=none;strokeWidth=1;fontFamily=Verdana;fontSize=10;align=center;" parent="1" vertex="1">
          <mxGeometry x="1004" y="1040" width="114" height="70" as="geometry" />
        </mxCell>
        <mxCell id="obIJAErb1e5xh0QblmXE-354" value="&lt;span style=&quot;font-family: &amp;#34;helvetica&amp;#34; ; font-size: 12px&quot;&gt;hash_string()&lt;/span&gt;" style="shape=folder;fontStyle=1;spacingTop=10;tabWidth=50;tabHeight=17;tabPosition=left;html=1;rounded=0;shadow=0;comic=0;labelBackgroundColor=none;strokeWidth=1;fontFamily=Verdana;fontSize=10;align=center;" parent="1" vertex="1">
          <mxGeometry x="774.5" y="875.41" width="112" height="70" as="geometry" />
        </mxCell>
        <mxCell id="obIJAErb1e5xh0QblmXE-355" value="Kivy.Popup" style="shape=folder;fontStyle=1;spacingTop=10;tabWidth=50;tabHeight=17;tabPosition=left;html=1;rounded=0;shadow=0;comic=0;labelBackgroundColor=none;strokeWidth=1;fontFamily=Verdana;fontSize=10;align=center;" parent="1" vertex="1">
          <mxGeometry x="644.5" y="875.41" width="112" height="70" as="geometry" />
        </mxCell>
        <mxCell id="obIJAErb1e5xh0QblmXE-359" value="check_fields(self, email, &#xa;password, &#xa;receiver_email, &#xa;master_key, consent)" style="shape=folder;fontStyle=1;spacingTop=10;tabWidth=50;tabHeight=17;tabPosition=left;rounded=0;shadow=0;comic=0;labelBackgroundColor=none;strokeWidth=1;fontFamily=Helvetica;fontSize=12;align=center;" parent="1" vertex="1">
          <mxGeometry x="507" y="577.0799999999999" width="170" height="94.5" as="geometry" />
        </mxCell>
        <mxCell id="obIJAErb1e5xh0QblmXE-413" style="edgeStyle=orthogonalEdgeStyle;rounded=0;orthogonalLoop=1;jettySize=auto;html=1;exitX=0.5;exitY=1;exitDx=0;exitDy=0;exitPerimeter=0;dashed=1;endArrow=open;endFill=0;fontFamily=Verdana;fontSize=10;entryX=0.5;entryY=0.095;entryDx=0;entryDy=0;entryPerimeter=0;labelBackgroundColor=none;startFill=0;endSize=10;" parent="1" source="obIJAErb1e5xh0QblmXE-361" target="obIJAErb1e5xh0QblmXE-297" edge="1">
          <mxGeometry relative="1" as="geometry" />
        </mxCell>
        <mxCell id="obIJAErb1e5xh0QblmXE-419" style="edgeStyle=orthogonalEdgeStyle;rounded=0;orthogonalLoop=1;jettySize=auto;html=1;exitX=0.25;exitY=1;exitDx=0;exitDy=0;exitPerimeter=0;dashed=1;endArrow=open;endFill=0;fontFamily=Verdana;fontSize=10;labelBackgroundColor=none;startFill=0;endSize=10;" parent="1" source="obIJAErb1e5xh0QblmXE-361" edge="1">
          <mxGeometry relative="1" as="geometry">
            <mxPoint x="763" y="1170" as="targetPoint" />
            <Array as="points">
              <mxPoint x="731" y="730" />
              <mxPoint x="580" y="730" />
              <mxPoint x="580" y="1000" />
              <mxPoint x="763" y="1000" />
            </Array>
          </mxGeometry>
        </mxCell>
        <mxCell id="obIJAErb1e5xh0QblmXE-361" value="process_files(email, &#xa;password, receiver_email)" style="shape=folder;fontStyle=1;spacingTop=10;tabWidth=50;tabHeight=17;tabPosition=left;rounded=0;shadow=0;comic=0;labelBackgroundColor=none;strokeWidth=1;fontFamily=Helvetica;fontSize=12;align=center;" parent="1" vertex="1">
          <mxGeometry x="690.5" y="577.08" width="160" height="94.5" as="geometry" />
        </mxCell>
        <mxCell id="obIJAErb1e5xh0QblmXE-364" value="" style="shape=folder;fontStyle=1;spacingTop=10;tabWidth=123;tabHeight=24;tabPosition=left;html=1;rounded=0;shadow=0;comic=0;labelBackgroundColor=none;strokeWidth=1;fontFamily=Verdana;fontSize=10;align=center;" parent="1" vertex="1">
          <mxGeometry x="910.5" y="540" width="380" height="150" as="geometry" />
        </mxCell>
        <mxCell id="obIJAErb1e5xh0QblmXE-372" style="edgeStyle=orthogonalEdgeStyle;rounded=0;orthogonalLoop=1;jettySize=auto;html=1;exitX=0;exitY=0;exitDx=0;exitDy=55.75;exitPerimeter=0;entryX=1.016;entryY=0.247;entryDx=0;entryDy=0;entryPerimeter=0;dashed=1;endArrow=open;endFill=0;fontFamily=Verdana;fontSize=10;labelBackgroundColor=none;startFill=0;endSize=10;" parent="1" source="obIJAErb1e5xh0QblmXE-365" target="obIJAErb1e5xh0QblmXE-196" edge="1">
          <mxGeometry relative="1" as="geometry">
            <Array as="points">
              <mxPoint x="890" y="629" />
              <mxPoint x="890" y="516" />
            </Array>
          </mxGeometry>
        </mxCell>
        <mxCell id="obIJAErb1e5xh0QblmXE-365" value="check_fields(self, email, &#xa;password, &#xa;receiver_email, &#xa;master_key, consent)" style="shape=folder;fontStyle=1;spacingTop=10;tabWidth=50;tabHeight=17;tabPosition=left;rounded=0;shadow=0;comic=0;labelBackgroundColor=none;strokeWidth=1;fontFamily=Helvetica;fontSize=12;align=center;" parent="1" vertex="1">
          <mxGeometry x="925" y="573.21" width="170" height="94.5" as="geometry" />
        </mxCell>
        <mxCell id="obIJAErb1e5xh0QblmXE-414" style="edgeStyle=orthogonalEdgeStyle;rounded=0;orthogonalLoop=1;jettySize=auto;html=1;exitX=0.5;exitY=1;exitDx=0;exitDy=0;exitPerimeter=0;dashed=1;endArrow=open;endFill=0;fontFamily=Verdana;fontSize=10;labelBackgroundColor=none;startFill=0;endSize=10;" parent="1" source="obIJAErb1e5xh0QblmXE-366" edge="1">
          <mxGeometry relative="1" as="geometry">
            <mxPoint x="1190" y="770" as="targetPoint" />
          </mxGeometry>
        </mxCell>
        <mxCell id="obIJAErb1e5xh0QblmXE-420" style="edgeStyle=orthogonalEdgeStyle;rounded=0;orthogonalLoop=1;jettySize=auto;html=1;exitX=0.25;exitY=1;exitDx=0;exitDy=0;exitPerimeter=0;dashed=1;endArrow=open;endFill=0;fontFamily=Verdana;fontSize=10;labelBackgroundColor=none;startFill=0;endSize=10;" parent="1" source="obIJAErb1e5xh0QblmXE-366" edge="1">
          <mxGeometry relative="1" as="geometry">
            <mxPoint x="791" y="1170" as="targetPoint" />
            <Array as="points">
              <mxPoint x="1151" y="720" />
              <mxPoint x="950" y="720" />
              <mxPoint x="950" y="1000" />
              <mxPoint x="791" y="1000" />
            </Array>
          </mxGeometry>
        </mxCell>
        <mxCell id="obIJAErb1e5xh0QblmXE-366" value="process_key_presses&#xa;(sender_email, &#xa;password, receiver_email)" style="shape=folder;fontStyle=1;spacingTop=10;tabWidth=50;tabHeight=17;tabPosition=left;rounded=0;shadow=0;comic=0;labelBackgroundColor=none;strokeWidth=1;fontFamily=Helvetica;fontSize=12;align=center;" parent="1" vertex="1">
          <mxGeometry x="1110.5" y="573.21" width="160" height="94.5" as="geometry" />
        </mxCell>
        <mxCell id="obIJAErb1e5xh0QblmXE-371" style="edgeStyle=orthogonalEdgeStyle;rounded=0;orthogonalLoop=1;jettySize=auto;html=1;exitX=0;exitY=0;exitDx=0;exitDy=55.75;exitPerimeter=0;entryX=1.02;entryY=0.244;entryDx=0;entryDy=0;entryPerimeter=0;dashed=1;endArrow=open;endFill=0;fontFamily=Verdana;fontSize=10;labelBackgroundColor=none;startFill=0;endSize=10;" parent="1" source="obIJAErb1e5xh0QblmXE-359" target="obIJAErb1e5xh0QblmXE-196" edge="1">
          <mxGeometry relative="1" as="geometry">
            <Array as="points">
              <mxPoint x="500" y="633" />
              <mxPoint x="500" y="590" />
              <mxPoint x="425" y="590" />
              <mxPoint x="425" y="515" />
            </Array>
          </mxGeometry>
        </mxCell>
        <mxCell id="obIJAErb1e5xh0QblmXE-374" value="" style="shape=folder;fontStyle=1;spacingTop=10;tabWidth=123;tabHeight=24;tabPosition=left;html=1;rounded=0;shadow=0;comic=0;labelBackgroundColor=none;strokeWidth=1;fontFamily=Verdana;fontSize=10;align=center;" parent="1" vertex="1">
          <mxGeometry x="2916" y="424.5" width="280" height="280" as="geometry" />
        </mxCell>
        <mxCell id="obIJAErb1e5xh0QblmXE-375" value="Адрес электронной &lt;br&gt;почты&lt;br&gt;email_input" style="shape=folder;fontStyle=1;spacingTop=10;tabWidth=50;tabHeight=17;tabPosition=left;html=1;rounded=0;shadow=0;comic=0;labelBackgroundColor=none;strokeWidth=1;fontFamily=Verdana;fontSize=10;align=center;" parent="1" vertex="1">
          <mxGeometry x="2936" y="480" width="112" height="70" as="geometry" />
        </mxCell>
        <mxCell id="obIJAErb1e5xh0QblmXE-376" value="Пароль&lt;br&gt;password_input" style="shape=folder;fontStyle=1;spacingTop=10;tabWidth=50;tabHeight=17;tabPosition=left;html=1;rounded=0;shadow=0;comic=0;labelBackgroundColor=none;strokeWidth=1;fontFamily=Verdana;fontSize=10;align=center;" parent="1" vertex="1">
          <mxGeometry x="3066" y="480" width="112" height="70" as="geometry" />
        </mxCell>
        <mxCell id="obIJAErb1e5xh0QblmXE-377" value="Интервал вставки&#xa;interval_&#xa;input_insert" style="shape=folder;fontStyle=1;spacingTop=10;tabWidth=50;tabHeight=17;tabPosition=left;rounded=0;shadow=0;comic=0;labelBackgroundColor=none;strokeWidth=1;fontFamily=Helvetica;fontSize=12;align=center;" parent="1" vertex="1">
          <mxGeometry x="2936" y="600" width="112" height="70" as="geometry" />
        </mxCell>
        <mxCell id="obIJAErb1e5xh0QblmXE-378" value="Интервал &#xa;извлечения&#xa;interval_input_extract" style="shape=folder;fontStyle=1;spacingTop=10;tabWidth=50;tabHeight=17;tabPosition=left;rounded=0;shadow=0;comic=0;labelBackgroundColor=none;strokeWidth=1;fontFamily=Helvetica;fontSize=12;align=center;" parent="1" vertex="1">
          <mxGeometry x="3066" y="600" width="112" height="70" as="geometry" />
        </mxCell>
        <mxCell id="obIJAErb1e5xh0QblmXE-383" style="edgeStyle=orthogonalEdgeStyle;rounded=0;orthogonalLoop=1;jettySize=auto;html=1;exitX=0.5;exitY=1;exitDx=0;exitDy=0;exitPerimeter=0;entryX=0.588;entryY=0.035;entryDx=0;entryDy=0;entryPerimeter=0;dashed=1;endArrow=open;endFill=0;fontFamily=Verdana;fontSize=10;labelBackgroundColor=none;startFill=0;endSize=10;" parent="1" source="obIJAErb1e5xh0QblmXE-381" target="obIJAErb1e5xh0QblmXE-382" edge="1">
          <mxGeometry relative="1" as="geometry" />
        </mxCell>
        <mxCell id="obIJAErb1e5xh0QblmXE-381" value="Kivy Components" style="shape=folder;fontStyle=1;spacingTop=10;tabWidth=50;tabHeight=17;tabPosition=left;html=1;rounded=0;shadow=0;comic=0;labelBackgroundColor=none;strokeWidth=1;fontFamily=Verdana;fontSize=10;align=center;" parent="1" vertex="1">
          <mxGeometry x="2660" y="350" width="130" height="70" as="geometry" />
        </mxCell>
        <mxCell id="obIJAErb1e5xh0QblmXE-382" value="" style="shape=folder;fontStyle=1;spacingTop=10;tabWidth=123;tabHeight=24;tabPosition=left;html=1;rounded=0;shadow=0;comic=0;labelBackgroundColor=none;strokeWidth=1;fontFamily=Verdana;fontSize=10;align=center;" parent="1" vertex="1">
          <mxGeometry x="2460" y="476.26" width="360" height="633.74" as="geometry" />
        </mxCell>
        <mxCell id="obIJAErb1e5xh0QblmXE-384" value="App" style="shape=folder;fontStyle=1;spacingTop=10;tabWidth=50;tabHeight=17;tabPosition=left;html=1;rounded=0;shadow=0;comic=0;labelBackgroundColor=none;strokeWidth=1;fontFamily=Verdana;fontSize=10;align=center;" parent="1" vertex="1">
          <mxGeometry x="2660" y="533.5899999999999" width="130" height="85.41114058355437" as="geometry" />
        </mxCell>
        <mxCell id="obIJAErb1e5xh0QblmXE-385" value="App" style="shape=folder;fontStyle=1;spacingTop=10;tabWidth=50;tabHeight=17;tabPosition=left;html=1;rounded=0;shadow=0;comic=0;labelBackgroundColor=none;strokeWidth=1;fontFamily=Verdana;fontSize=10;align=center;" parent="1" vertex="1">
          <mxGeometry x="-200" y="1190" width="130" height="80" as="geometry" />
        </mxCell>
        <mxCell id="obIJAErb1e5xh0QblmXE-386" value="ScrollView" style="shape=folder;fontStyle=1;spacingTop=10;tabWidth=50;tabHeight=17;tabPosition=left;html=1;rounded=0;shadow=0;comic=0;labelBackgroundColor=none;strokeWidth=1;fontFamily=Verdana;fontSize=10;align=center;" parent="1" vertex="1">
          <mxGeometry x="2490" y="533.5899999999999" width="130" height="85.41114058355437" as="geometry" />
        </mxCell>
        <mxCell id="obIJAErb1e5xh0QblmXE-388" value="BoxLayout" style="shape=folder;fontStyle=1;spacingTop=10;tabWidth=50;tabHeight=17;tabPosition=left;html=1;rounded=0;shadow=0;comic=0;labelBackgroundColor=none;strokeWidth=1;fontFamily=Verdana;fontSize=10;align=center;" parent="1" vertex="1">
          <mxGeometry x="2660" y="644.5" width="130" height="85.5" as="geometry" />
        </mxCell>
        <mxCell id="obIJAErb1e5xh0QblmXE-389" value="TextInput" style="shape=folder;fontStyle=1;spacingTop=10;tabWidth=50;tabHeight=17;tabPosition=left;html=1;rounded=0;shadow=0;comic=0;labelBackgroundColor=none;strokeWidth=1;fontFamily=Verdana;fontSize=10;align=center;" parent="1" vertex="1">
          <mxGeometry x="2660" y="760" width="130" height="85.41114058355437" as="geometry" />
        </mxCell>
        <mxCell id="obIJAErb1e5xh0QblmXE-390" value="Button" style="shape=folder;fontStyle=1;spacingTop=10;tabWidth=50;tabHeight=17;tabPosition=left;html=1;rounded=0;shadow=0;comic=0;labelBackgroundColor=none;strokeWidth=1;fontFamily=Verdana;fontSize=10;align=center;" parent="1" vertex="1">
          <mxGeometry x="2660" y="869.09" width="130" height="85.41114058355437" as="geometry" />
        </mxCell>
        <mxCell id="obIJAErb1e5xh0QblmXE-391" value="Label" style="shape=folder;fontStyle=1;spacingTop=10;tabWidth=50;tabHeight=17;tabPosition=left;html=1;rounded=0;shadow=0;comic=0;labelBackgroundColor=none;strokeWidth=1;fontFamily=Verdana;fontSize=10;align=center;" parent="1" vertex="1">
          <mxGeometry x="2490" y="984.59" width="130" height="85.41114058355437" as="geometry" />
        </mxCell>
        <mxCell id="obIJAErb1e5xh0QblmXE-392" value="GridLayout" style="shape=folder;fontStyle=1;spacingTop=10;tabWidth=50;tabHeight=17;tabPosition=left;html=1;rounded=0;shadow=0;comic=0;labelBackgroundColor=none;strokeWidth=1;fontFamily=Verdana;fontSize=10;align=center;" parent="1" vertex="1">
          <mxGeometry x="2490" y="644.5" width="130" height="85.5" as="geometry" />
        </mxCell>
        <mxCell id="obIJAErb1e5xh0QblmXE-393" value="Popup" style="shape=folder;fontStyle=1;spacingTop=10;tabWidth=50;tabHeight=17;tabPosition=left;html=1;rounded=0;shadow=0;comic=0;labelBackgroundColor=none;strokeWidth=1;fontFamily=Verdana;fontSize=10;align=center;" parent="1" vertex="1">
          <mxGeometry x="2490" y="760" width="130" height="85.41114058355437" as="geometry" />
        </mxCell>
        <mxCell id="obIJAErb1e5xh0QblmXE-394" value="Clock" style="shape=folder;fontStyle=1;spacingTop=10;tabWidth=50;tabHeight=17;tabPosition=left;html=1;rounded=0;shadow=0;comic=0;labelBackgroundColor=none;strokeWidth=1;fontFamily=Verdana;fontSize=10;align=center;" parent="1" vertex="1">
          <mxGeometry x="2490" y="869.09" width="130" height="85.41114058355437" as="geometry" />
        </mxCell>
        <mxCell id="obIJAErb1e5xh0QblmXE-400" value="Общая схема" style="text;html=1;strokeColor=none;fillColor=none;align=center;verticalAlign=middle;whiteSpace=wrap;rounded=0;fontFamily=Helvetica;fontSize=50;fontStyle=1" parent="1" vertex="1">
          <mxGeometry x="1849" y="1650" width="690" height="20" as="geometry" />
        </mxCell>
        <mxCell id="obIJAErb1e5xh0QblmXE-401" value="Почтовый сервер&lt;br&gt;mail.ru" style="shape=folder;fontStyle=1;spacingTop=10;tabWidth=50;tabHeight=17;tabPosition=left;html=1;rounded=0;shadow=0;comic=0;labelBackgroundColor=none;strokeWidth=1;fontFamily=Verdana;fontSize=10;align=center;" parent="1" vertex="1">
          <mxGeometry x="709.5" y="1400" width="112" height="70" as="geometry" />
        </mxCell>
        <mxCell id="obIJAErb1e5xh0QblmXE-415" style="edgeStyle=orthogonalEdgeStyle;rounded=0;orthogonalLoop=1;jettySize=auto;html=1;exitX=0.25;exitY=1;exitDx=0;exitDy=0;exitPerimeter=0;entryX=0;entryY=0;entryDx=81;entryDy=17;entryPerimeter=0;dashed=1;endArrow=open;endFill=0;fontFamily=Verdana;fontSize=10;labelBackgroundColor=none;startFill=0;endSize=10;" parent="1" source="obIJAErb1e5xh0QblmXE-335" target="obIJAErb1e5xh0QblmXE-336" edge="1">
          <mxGeometry relative="1" as="geometry" />
        </mxCell>
        <mxCell id="obIJAErb1e5xh0QblmXE-416" style="edgeStyle=orthogonalEdgeStyle;rounded=0;orthogonalLoop=1;jettySize=auto;html=1;exitX=0.5;exitY=1;exitDx=0;exitDy=0;exitPerimeter=0;dashed=1;endArrow=open;endFill=0;fontFamily=Verdana;fontSize=10;labelBackgroundColor=none;startFill=0;endSize=10;" parent="1" source="obIJAErb1e5xh0QblmXE-335" edge="1">
          <mxGeometry relative="1" as="geometry">
            <mxPoint x="3280" y="307" as="targetPoint" />
            <Array as="points">
              <mxPoint x="3267" y="237" />
              <mxPoint x="3280" y="237" />
              <mxPoint x="3280" y="307" />
            </Array>
          </mxGeometry>
        </mxCell>
        <mxCell id="obIJAErb1e5xh0QblmXE-417" style="edgeStyle=orthogonalEdgeStyle;rounded=0;orthogonalLoop=1;jettySize=auto;html=1;exitX=0.75;exitY=1;exitDx=0;exitDy=0;exitPerimeter=0;entryX=0.586;entryY=0.268;entryDx=0;entryDy=0;entryPerimeter=0;dashed=1;endArrow=open;endFill=0;fontFamily=Verdana;fontSize=10;labelBackgroundColor=none;startFill=0;endSize=10;" parent="1" source="obIJAErb1e5xh0QblmXE-335" target="obIJAErb1e5xh0QblmXE-338" edge="1">
          <mxGeometry relative="1" as="geometry" />
        </mxCell>
        <mxCell id="obIJAErb1e5xh0QblmXE-447" style="edgeStyle=orthogonalEdgeStyle;rounded=0;orthogonalLoop=1;jettySize=auto;html=1;exitX=0;exitY=0;exitDx=0;exitDy=43.5;exitPerimeter=0;entryX=0;entryY=0;entryDx=280;entryDy=152;entryPerimeter=0;dashed=1;endArrow=open;endFill=0;fontFamily=Verdana;fontSize=10;labelBackgroundColor=none;startFill=0;endSize=10;" parent="1" source="obIJAErb1e5xh0QblmXE-421" target="obIJAErb1e5xh0QblmXE-374" edge="1">
          <mxGeometry relative="1" as="geometry" />
        </mxCell>
        <mxCell id="obIJAErb1e5xh0QblmXE-452" style="edgeStyle=orthogonalEdgeStyle;rounded=0;orthogonalLoop=1;jettySize=auto;html=1;exitX=0.5;exitY=1;exitDx=0;exitDy=0;exitPerimeter=0;dashed=1;endArrow=open;endFill=0;fontFamily=Verdana;fontSize=10;labelBackgroundColor=none;startFill=0;endSize=10;" parent="1" source="obIJAErb1e5xh0QblmXE-421" edge="1">
          <mxGeometry relative="1" as="geometry">
            <mxPoint x="3306" y="700" as="targetPoint" />
          </mxGeometry>
        </mxCell>
        <mxCell id="obIJAErb1e5xh0QblmXE-421" value="Извлечь данные&#xa;on_submit&#xa;(self, instance)" style="shape=folder;fontStyle=1;spacingTop=10;tabWidth=50;tabHeight=17;tabPosition=left;rounded=0;shadow=0;comic=0;labelBackgroundColor=none;strokeWidth=1;fontFamily=Helvetica;fontSize=12;align=center;" parent="1" vertex="1">
          <mxGeometry x="3250" y="430" width="112" height="70" as="geometry" />
        </mxCell>
        <mxCell id="obIJAErb1e5xh0QblmXE-448" style="edgeStyle=orthogonalEdgeStyle;rounded=0;orthogonalLoop=1;jettySize=auto;html=1;exitX=0;exitY=0;exitDx=0;exitDy=43.5;exitPerimeter=0;entryX=1.002;entryY=0.654;entryDx=0;entryDy=0;entryPerimeter=0;dashed=1;endArrow=open;endFill=0;fontFamily=Verdana;fontSize=10;labelBackgroundColor=none;startFill=0;endSize=10;" parent="1" source="obIJAErb1e5xh0QblmXE-422" target="obIJAErb1e5xh0QblmXE-374" edge="1">
          <mxGeometry relative="1" as="geometry">
            <Array as="points">
              <mxPoint x="3380" y="474" />
              <mxPoint x="3380" y="420" />
              <mxPoint x="3240" y="420" />
              <mxPoint x="3240" y="608" />
            </Array>
          </mxGeometry>
        </mxCell>
        <mxCell id="obIJAErb1e5xh0QblmXE-464" style="edgeStyle=orthogonalEdgeStyle;rounded=0;orthogonalLoop=1;jettySize=auto;html=1;exitX=0.5;exitY=1;exitDx=0;exitDy=0;exitPerimeter=0;dashed=1;endArrow=open;endFill=0;fontFamily=Verdana;fontSize=10;labelBackgroundColor=none;startFill=0;endSize=10;" parent="1" source="obIJAErb1e5xh0QblmXE-422" edge="1">
          <mxGeometry relative="1" as="geometry">
            <mxPoint x="3456" y="550" as="targetPoint" />
          </mxGeometry>
        </mxCell>
        <mxCell id="obIJAErb1e5xh0QblmXE-504" style="edgeStyle=orthogonalEdgeStyle;rounded=0;orthogonalLoop=1;jettySize=auto;html=1;exitX=0.25;exitY=1;exitDx=0;exitDy=0;exitPerimeter=0;entryX=0;entryY=0;entryDx=61.5;entryDy=0;entryPerimeter=0;dashed=1;endArrow=open;endFill=0;fontFamily=Verdana;fontSize=10;labelBackgroundColor=none;startFill=0;endSize=10;" parent="1" source="obIJAErb1e5xh0QblmXE-422" target="obIJAErb1e5xh0QblmXE-454" edge="1">
          <mxGeometry relative="1" as="geometry">
            <Array as="points">
              <mxPoint x="3428" y="510" />
              <mxPoint x="3390" y="510" />
              <mxPoint x="3390" y="670" />
              <mxPoint x="3462" y="670" />
            </Array>
          </mxGeometry>
        </mxCell>
        <mxCell id="obIJAErb1e5xh0QblmXE-422" value="Вставить данные&#xa;on_insert&#xa;(self, instance)" style="shape=folder;fontStyle=1;spacingTop=10;tabWidth=50;tabHeight=17;tabPosition=left;rounded=0;shadow=0;comic=0;labelBackgroundColor=none;strokeWidth=1;fontFamily=Helvetica;fontSize=12;align=center;" parent="1" vertex="1">
          <mxGeometry x="3400" y="430" width="112" height="70" as="geometry" />
        </mxCell>
        <mxCell id="obIJAErb1e5xh0QblmXE-478" style="edgeStyle=orthogonalEdgeStyle;rounded=0;orthogonalLoop=1;jettySize=auto;html=1;exitX=0;exitY=0;exitDx=0;exitDy=77;exitPerimeter=0;entryX=0;entryY=0;entryDx=280;entryDy=216;entryPerimeter=0;dashed=1;endArrow=open;endFill=0;fontFamily=Verdana;fontSize=10;labelBackgroundColor=none;startFill=0;endSize=10;" parent="1" source="obIJAErb1e5xh0QblmXE-423" target="obIJAErb1e5xh0QblmXE-374" edge="1">
          <mxGeometry relative="1" as="geometry">
            <Array as="points">
              <mxPoint x="3560" y="520" />
              <mxPoint x="3360" y="520" />
              <mxPoint x="3360" y="641" />
            </Array>
          </mxGeometry>
        </mxCell>
        <mxCell id="obIJAErb1e5xh0QblmXE-423" value="" style="shape=folder;fontStyle=1;spacingTop=10;tabWidth=123;tabHeight=24;tabPosition=left;html=1;rounded=0;shadow=0;comic=0;labelBackgroundColor=none;strokeWidth=1;fontFamily=Verdana;fontSize=10;align=center;" parent="1" vertex="1">
          <mxGeometry x="3560" y="430" width="280" height="130" as="geometry" />
        </mxCell>
        <mxCell id="obIJAErb1e5xh0QblmXE-476" style="edgeStyle=orthogonalEdgeStyle;rounded=0;orthogonalLoop=1;jettySize=auto;html=1;exitX=0.75;exitY=1;exitDx=0;exitDy=0;exitPerimeter=0;entryX=0;entryY=0;entryDx=81;entryDy=17;entryPerimeter=0;dashed=1;endArrow=open;endFill=0;fontFamily=Verdana;fontSize=10;labelBackgroundColor=none;startFill=0;endSize=10;" parent="1" source="obIJAErb1e5xh0QblmXE-425" target="obIJAErb1e5xh0QblmXE-475" edge="1">
          <mxGeometry relative="1" as="geometry" />
        </mxCell>
        <mxCell id="obIJAErb1e5xh0QblmXE-425" value="Старт авто вставки&#xa;start_auto_insert" style="shape=folder;fontStyle=1;spacingTop=10;tabWidth=50;tabHeight=17;tabPosition=left;rounded=0;shadow=0;comic=0;labelBackgroundColor=none;strokeWidth=1;fontFamily=Helvetica;fontSize=12;align=center;" parent="1" vertex="1">
          <mxGeometry x="3580" y="470" width="112" height="79.5" as="geometry" />
        </mxCell>
        <mxCell id="obIJAErb1e5xh0QblmXE-484" style="edgeStyle=orthogonalEdgeStyle;rounded=0;orthogonalLoop=1;jettySize=auto;html=1;exitX=0.75;exitY=1;exitDx=0;exitDy=0;exitPerimeter=0;entryX=0;entryY=0;entryDx=81;entryDy=17;entryPerimeter=0;dashed=1;endArrow=open;endFill=0;fontFamily=Verdana;fontSize=10;labelBackgroundColor=none;startFill=0;endSize=10;" parent="1" source="obIJAErb1e5xh0QblmXE-426" target="obIJAErb1e5xh0QblmXE-483" edge="1">
          <mxGeometry relative="1" as="geometry" />
        </mxCell>
        <mxCell id="obIJAErb1e5xh0QblmXE-426" value="Остановить авто &#xa;вставку&#xa;stop_auto_insert" style="shape=folder;fontStyle=1;spacingTop=10;tabWidth=50;tabHeight=17;tabPosition=left;rounded=0;shadow=0;comic=0;labelBackgroundColor=none;strokeWidth=1;fontFamily=Helvetica;fontSize=12;align=center;" parent="1" vertex="1">
          <mxGeometry x="3710" y="470" width="112" height="79.5" as="geometry" />
        </mxCell>
        <mxCell id="obIJAErb1e5xh0QblmXE-487" style="edgeStyle=orthogonalEdgeStyle;rounded=0;orthogonalLoop=1;jettySize=auto;html=1;exitX=0.75;exitY=1;exitDx=0;exitDy=0;exitPerimeter=0;entryX=0;entryY=0;entryDx=81;entryDy=17;entryPerimeter=0;dashed=1;endArrow=open;endFill=0;fontFamily=Verdana;fontSize=10;labelBackgroundColor=none;startFill=0;endSize=10;" parent="1" source="obIJAErb1e5xh0QblmXE-427" target="obIJAErb1e5xh0QblmXE-486" edge="1">
          <mxGeometry relative="1" as="geometry" />
        </mxCell>
        <mxCell id="obIJAErb1e5xh0QblmXE-427" value="Старт авто &#xa;извлечения&#xa;start_auto_extract" style="shape=folder;fontStyle=1;spacingTop=10;tabWidth=50;tabHeight=17;tabPosition=left;rounded=0;shadow=0;comic=0;labelBackgroundColor=none;strokeWidth=1;fontFamily=Helvetica;fontSize=12;align=center;" parent="1" vertex="1">
          <mxGeometry x="3910" y="465.25" width="112" height="79.5" as="geometry" />
        </mxCell>
        <mxCell id="obIJAErb1e5xh0QblmXE-491" style="edgeStyle=orthogonalEdgeStyle;rounded=0;orthogonalLoop=1;jettySize=auto;html=1;exitX=0.75;exitY=1;exitDx=0;exitDy=0;exitPerimeter=0;entryX=0;entryY=0;entryDx=81;entryDy=17;entryPerimeter=0;dashed=1;endArrow=open;endFill=0;fontFamily=Verdana;fontSize=10;labelBackgroundColor=none;startFill=0;endSize=10;" parent="1" source="obIJAErb1e5xh0QblmXE-428" target="obIJAErb1e5xh0QblmXE-490" edge="1">
          <mxGeometry relative="1" as="geometry" />
        </mxCell>
        <mxCell id="obIJAErb1e5xh0QblmXE-428" value="Остановить авто&#xa;извлечение&#xa;stop_auto_extract" style="shape=folder;fontStyle=1;spacingTop=10;tabWidth=50;tabHeight=17;tabPosition=left;rounded=0;shadow=0;comic=0;labelBackgroundColor=none;strokeWidth=1;fontFamily=Helvetica;fontSize=12;align=center;" parent="1" vertex="1">
          <mxGeometry x="4040" y="466.26" width="112" height="79.5" as="geometry" />
        </mxCell>
        <mxCell id="obIJAErb1e5xh0QblmXE-497" style="edgeStyle=orthogonalEdgeStyle;rounded=0;orthogonalLoop=1;jettySize=auto;html=1;exitX=0.5;exitY=1;exitDx=0;exitDy=0;exitPerimeter=0;entryX=0.578;entryY=0.208;entryDx=0;entryDy=0;entryPerimeter=0;dashed=1;endArrow=open;endFill=0;fontFamily=Verdana;fontSize=10;labelBackgroundColor=none;startFill=0;endSize=10;" parent="1" source="obIJAErb1e5xh0QblmXE-441" target="obIJAErb1e5xh0QblmXE-496" edge="1">
          <mxGeometry relative="1" as="geometry" />
        </mxCell>
        <mxCell id="obIJAErb1e5xh0QblmXE-441" value="" style="shape=folder;fontStyle=1;spacingTop=10;tabWidth=123;tabHeight=24;tabPosition=left;html=1;rounded=0;shadow=0;comic=0;labelBackgroundColor=none;strokeWidth=1;fontFamily=Verdana;fontSize=10;align=center;" parent="1" vertex="1">
          <mxGeometry x="4250" y="430" width="280" height="230" as="geometry" />
        </mxCell>
        <mxCell id="obIJAErb1e5xh0QblmXE-442" value="Показать&lt;br&gt;table_for_keylogs" style="shape=folder;fontStyle=1;spacingTop=10;tabWidth=50;tabHeight=17;tabPosition=left;html=1;rounded=0;shadow=0;comic=0;labelBackgroundColor=none;strokeWidth=1;fontFamily=Verdana;fontSize=10;align=center;" parent="1" vertex="1">
          <mxGeometry x="4270" y="471.01" width="112" height="70" as="geometry" />
        </mxCell>
        <mxCell id="obIJAErb1e5xh0QblmXE-443" value="Показать&lt;br&gt;audit_keylogs" style="shape=folder;fontStyle=1;spacingTop=10;tabWidth=50;tabHeight=17;tabPosition=left;html=1;rounded=0;shadow=0;comic=0;labelBackgroundColor=none;strokeWidth=1;fontFamily=Verdana;fontSize=10;align=center;" parent="1" vertex="1">
          <mxGeometry x="4400" y="470" width="112" height="70" as="geometry" />
        </mxCell>
        <mxCell id="obIJAErb1e5xh0QblmXE-444" value="Показать&lt;br&gt;table_for_passwords" style="shape=folder;fontStyle=1;spacingTop=10;tabWidth=50;tabHeight=17;tabPosition=left;html=1;rounded=0;shadow=0;comic=0;labelBackgroundColor=none;strokeWidth=1;fontFamily=Verdana;fontSize=10;align=center;" parent="1" vertex="1">
          <mxGeometry x="4270" y="559.5" width="112" height="70" as="geometry" />
        </mxCell>
        <mxCell id="obIJAErb1e5xh0QblmXE-445" value="Показать&lt;br&gt;audit_passwords" style="shape=folder;fontStyle=1;spacingTop=10;tabWidth=50;tabHeight=17;tabPosition=left;html=1;rounded=0;shadow=0;comic=0;labelBackgroundColor=none;strokeWidth=1;fontFamily=Verdana;fontSize=10;align=center;" parent="1" vertex="1">
          <mxGeometry x="4400" y="560" width="112" height="70" as="geometry" />
        </mxCell>
        <mxCell id="obIJAErb1e5xh0QblmXE-449" value="all_emails_&#xa;mail_ru.txt" style="shape=folder;fontStyle=1;spacingTop=10;tabWidth=50;tabHeight=17;tabPosition=left;rounded=0;shadow=0;comic=0;labelBackgroundColor=none;strokeWidth=1;fontFamily=Helvetica;fontSize=12;align=center;" parent="1" vertex="1">
          <mxGeometry x="3420" y="719.91" width="112" height="70" as="geometry" />
        </mxCell>
        <mxCell id="obIJAErb1e5xh0QblmXE-458" style="edgeStyle=orthogonalEdgeStyle;rounded=0;orthogonalLoop=1;jettySize=auto;html=1;exitX=0.5;exitY=1;exitDx=0;exitDy=0;exitPerimeter=0;dashed=1;endArrow=open;endFill=0;fontFamily=Verdana;fontSize=10;labelBackgroundColor=none;startFill=0;endSize=10;" parent="1" source="obIJAErb1e5xh0QblmXE-451" edge="1">
          <mxGeometry relative="1" as="geometry">
            <mxPoint x="3306" y="800" as="targetPoint" />
          </mxGeometry>
        </mxCell>
        <mxCell id="obIJAErb1e5xh0QblmXE-451" value="get_all_emails&#xa;(self, username, &#xa;password, identifier)" style="shape=folder;fontStyle=1;spacingTop=10;tabWidth=50;tabHeight=17;tabPosition=left;rounded=0;shadow=0;comic=0;labelBackgroundColor=none;strokeWidth=1;fontFamily=Helvetica;fontSize=12;align=center;" parent="1" vertex="1">
          <mxGeometry x="3250" y="685.41" width="112" height="70" as="geometry" />
        </mxCell>
        <mxCell id="obIJAErb1e5xh0QblmXE-455" value="filtered_data.txt" style="shape=folder;fontStyle=1;spacingTop=10;tabWidth=50;tabHeight=17;tabPosition=left;rounded=0;shadow=0;comic=0;labelBackgroundColor=none;strokeWidth=1;fontFamily=Helvetica;fontSize=12;align=center;" parent="1" vertex="1">
          <mxGeometry x="3550" y="719.91" width="112" height="70" as="geometry" />
        </mxCell>
        <mxCell id="obIJAErb1e5xh0QblmXE-460" style="edgeStyle=orthogonalEdgeStyle;rounded=0;orthogonalLoop=1;jettySize=auto;html=1;exitX=0.5;exitY=1;exitDx=0;exitDy=0;exitPerimeter=0;dashed=1;endArrow=open;endFill=0;fontFamily=Verdana;fontSize=10;labelBackgroundColor=none;startFill=0;endSize=10;" parent="1" source="obIJAErb1e5xh0QblmXE-457" edge="1">
          <mxGeometry relative="1" as="geometry">
            <mxPoint x="3306" y="910" as="targetPoint" />
          </mxGeometry>
        </mxCell>
        <mxCell id="obIJAErb1e5xh0QblmXE-457" value="imaplib" style="shape=folder;fontStyle=1;spacingTop=10;tabWidth=50;tabHeight=17;tabPosition=left;rounded=0;shadow=0;comic=0;labelBackgroundColor=none;strokeWidth=1;fontFamily=Helvetica;fontSize=12;align=center;" parent="1" vertex="1">
          <mxGeometry x="3250" y="780.93" width="112" height="70" as="geometry" />
        </mxCell>
        <mxCell id="obIJAErb1e5xh0QblmXE-459" value="Почтовый сервер&lt;br&gt;mail.ru" style="shape=folder;fontStyle=1;spacingTop=10;tabWidth=50;tabHeight=17;tabPosition=left;html=1;rounded=0;shadow=0;comic=0;labelBackgroundColor=none;strokeWidth=1;fontFamily=Verdana;fontSize=10;align=center;" parent="1" vertex="1">
          <mxGeometry x="3250" y="892.79" width="112" height="70" as="geometry" />
        </mxCell>
        <mxCell id="obIJAErb1e5xh0QblmXE-466" style="edgeStyle=orthogonalEdgeStyle;rounded=0;orthogonalLoop=1;jettySize=auto;html=1;exitX=0.5;exitY=1;exitDx=0;exitDy=0;exitPerimeter=0;entryX=0.568;entryY=0.261;entryDx=0;entryDy=0;entryPerimeter=0;dashed=1;endArrow=open;endFill=0;fontFamily=Verdana;fontSize=10;labelBackgroundColor=none;startFill=0;endSize=10;" parent="1" source="obIJAErb1e5xh0QblmXE-463" target="obIJAErb1e5xh0QblmXE-465" edge="1">
          <mxGeometry relative="1" as="geometry">
            <Array as="points">
              <mxPoint x="3456" y="660" />
              <mxPoint x="3814" y="660" />
            </Array>
          </mxGeometry>
        </mxCell>
        <mxCell id="obIJAErb1e5xh0QblmXE-508" style="edgeStyle=orthogonalEdgeStyle;rounded=0;orthogonalLoop=1;jettySize=auto;html=1;exitX=0.75;exitY=1;exitDx=0;exitDy=0;exitPerimeter=0;entryX=0;entryY=0;entryDx=0;entryDy=43.5;entryPerimeter=0;dashed=1;endArrow=open;endFill=0;fontFamily=Verdana;fontSize=10;labelBackgroundColor=none;startFill=0;endSize=10;" parent="1" source="obIJAErb1e5xh0QblmXE-463" target="obIJAErb1e5xh0QblmXE-467" edge="1">
          <mxGeometry relative="1" as="geometry">
            <Array as="points">
              <mxPoint x="3484" y="670" />
              <mxPoint x="3700" y="670" />
              <mxPoint x="3700" y="830" />
            </Array>
          </mxGeometry>
        </mxCell>
        <mxCell id="obIJAErb1e5xh0QblmXE-463" value="connect_to_&#xa;database(self)" style="shape=folder;fontStyle=1;spacingTop=10;tabWidth=50;tabHeight=17;tabPosition=left;rounded=0;shadow=0;comic=0;labelBackgroundColor=none;strokeWidth=1;fontFamily=Helvetica;fontSize=12;align=center;" parent="1" vertex="1">
          <mxGeometry x="3400" y="533.59" width="112" height="70" as="geometry" />
        </mxCell>
        <mxCell id="obIJAErb1e5xh0QblmXE-469" style="edgeStyle=orthogonalEdgeStyle;rounded=0;orthogonalLoop=1;jettySize=auto;html=1;exitX=0.5;exitY=1;exitDx=0;exitDy=0;exitPerimeter=0;dashed=1;endArrow=open;endFill=0;fontFamily=Verdana;fontSize=10;entryX=0;entryY=0;entryDx=81;entryDy=17;entryPerimeter=0;labelBackgroundColor=none;startFill=0;endSize=10;" parent="1" source="obIJAErb1e5xh0QblmXE-465" target="obIJAErb1e5xh0QblmXE-467" edge="1">
          <mxGeometry relative="1" as="geometry" />
        </mxCell>
        <mxCell id="obIJAErb1e5xh0QblmXE-465" value="psycopg2" style="shape=folder;fontStyle=1;spacingTop=10;tabWidth=50;tabHeight=17;tabPosition=left;rounded=0;shadow=0;comic=0;labelBackgroundColor=none;strokeWidth=1;fontFamily=Helvetica;fontSize=12;align=center;" parent="1" vertex="1">
          <mxGeometry x="3750" y="690" width="112" height="70" as="geometry" />
        </mxCell>
        <mxCell id="obIJAErb1e5xh0QblmXE-472" style="edgeStyle=orthogonalEdgeStyle;rounded=0;orthogonalLoop=1;jettySize=auto;html=1;exitX=0.5;exitY=1;exitDx=0;exitDy=0;exitPerimeter=0;entryX=0;entryY=0;entryDx=81;entryDy=17;entryPerimeter=0;dashed=1;endArrow=open;endFill=0;fontFamily=Verdana;fontSize=10;labelBackgroundColor=none;startFill=0;endSize=10;" parent="1" source="obIJAErb1e5xh0QblmXE-467" target="obIJAErb1e5xh0QblmXE-471" edge="1">
          <mxGeometry relative="1" as="geometry" />
        </mxCell>
        <mxCell id="obIJAErb1e5xh0QblmXE-467" value="База данных&#xa;&quot;EHP_Project&quot;" style="shape=folder;fontStyle=1;spacingTop=10;tabWidth=50;tabHeight=17;tabPosition=left;rounded=0;shadow=0;comic=0;labelBackgroundColor=none;strokeWidth=1;fontFamily=Helvetica;fontSize=12;align=center;" parent="1" vertex="1">
          <mxGeometry x="3750" y="786.26" width="112" height="70" as="geometry" />
        </mxCell>
        <mxCell id="obIJAErb1e5xh0QblmXE-471" value="PostgreSQL" style="shape=folder;fontStyle=1;spacingTop=10;tabWidth=50;tabHeight=17;tabPosition=left;html=1;rounded=0;shadow=0;comic=0;labelBackgroundColor=none;strokeWidth=1;fontFamily=Verdana;fontSize=10;align=center;" parent="1" vertex="1">
          <mxGeometry x="3750" y="892.79" width="112" height="70" as="geometry" />
        </mxCell>
        <mxCell id="obIJAErb1e5xh0QblmXE-479" style="edgeStyle=orthogonalEdgeStyle;rounded=0;orthogonalLoop=1;jettySize=auto;html=1;exitX=0;exitY=0;exitDx=0;exitDy=43.5;exitPerimeter=0;entryX=0;entryY=0;entryDx=112.00000000000001;entryDy=43.5;entryPerimeter=0;dashed=1;endArrow=open;endFill=0;fontFamily=Verdana;fontSize=10;labelBackgroundColor=none;startFill=0;endSize=10;" parent="1" source="obIJAErb1e5xh0QblmXE-475" target="obIJAErb1e5xh0QblmXE-463" edge="1">
          <mxGeometry relative="1" as="geometry" />
        </mxCell>
        <mxCell id="obIJAErb1e5xh0QblmXE-482" style="edgeStyle=orthogonalEdgeStyle;rounded=0;orthogonalLoop=1;jettySize=auto;html=1;exitX=0.5;exitY=1;exitDx=0;exitDy=0;exitPerimeter=0;entryX=0;entryY=0;entryDx=81;entryDy=17;entryPerimeter=0;dashed=1;endArrow=open;endFill=0;fontFamily=Verdana;fontSize=10;labelBackgroundColor=none;startFill=0;endSize=10;" parent="1" source="obIJAErb1e5xh0QblmXE-475" target="obIJAErb1e5xh0QblmXE-480" edge="1">
          <mxGeometry relative="1" as="geometry">
            <Array as="points">
              <mxPoint x="3636" y="650" />
              <mxPoint x="3981" y="650" />
            </Array>
          </mxGeometry>
        </mxCell>
        <mxCell id="obIJAErb1e5xh0QblmXE-485" style="edgeStyle=orthogonalEdgeStyle;rounded=0;orthogonalLoop=1;jettySize=auto;html=1;exitX=0;exitY=0;exitDx=112.00000000000001;exitDy=43.5;exitPerimeter=0;entryX=0;entryY=0;entryDx=0;entryDy=43.5;entryPerimeter=0;dashed=1;endArrow=open;endFill=0;fontFamily=Verdana;fontSize=10;labelBackgroundColor=none;startFill=0;endSize=10;" parent="1" source="obIJAErb1e5xh0QblmXE-475" target="obIJAErb1e5xh0QblmXE-483" edge="1">
          <mxGeometry relative="1" as="geometry" />
        </mxCell>
        <mxCell id="obIJAErb1e5xh0QblmXE-475" value="start_auto_insert&#xa;(self, instance)" style="shape=folder;fontStyle=1;spacingTop=10;tabWidth=50;tabHeight=17;tabPosition=left;rounded=0;shadow=0;comic=0;labelBackgroundColor=none;strokeWidth=1;fontFamily=Helvetica;fontSize=12;align=center;" parent="1" vertex="1">
          <mxGeometry x="3580" y="567.2" width="112" height="70" as="geometry" />
        </mxCell>
        <mxCell id="obIJAErb1e5xh0QblmXE-480" value="Clock" style="shape=folder;fontStyle=1;spacingTop=10;tabWidth=50;tabHeight=17;tabPosition=left;rounded=0;shadow=0;comic=0;labelBackgroundColor=none;strokeWidth=1;fontFamily=Helvetica;fontSize=12;align=center;" parent="1" vertex="1">
          <mxGeometry x="3900" y="690" width="112" height="70" as="geometry" />
        </mxCell>
        <mxCell id="obIJAErb1e5xh0QblmXE-483" value="stop_auto_insert&#xa;(self, instance)" style="shape=folder;fontStyle=1;spacingTop=10;tabWidth=50;tabHeight=17;tabPosition=left;rounded=0;shadow=0;comic=0;labelBackgroundColor=none;strokeWidth=1;fontFamily=Helvetica;fontSize=12;align=center;" parent="1" vertex="1">
          <mxGeometry x="3710" y="567.2" width="112" height="70" as="geometry" />
        </mxCell>
        <mxCell id="obIJAErb1e5xh0QblmXE-489" style="edgeStyle=orthogonalEdgeStyle;rounded=0;orthogonalLoop=1;jettySize=auto;html=1;exitX=0;exitY=0;exitDx=112.00000000000001;exitDy=43.5;exitPerimeter=0;entryX=0;entryY=0;entryDx=0;entryDy=43.5;entryPerimeter=0;dashed=1;endArrow=open;endFill=0;fontFamily=Verdana;fontSize=10;labelBackgroundColor=none;startFill=0;endSize=10;" parent="1" source="obIJAErb1e5xh0QblmXE-486" target="obIJAErb1e5xh0QblmXE-451" edge="1">
          <mxGeometry relative="1" as="geometry">
            <Array as="points">
              <mxPoint x="4022" y="630" />
              <mxPoint x="4030" y="630" />
              <mxPoint x="4030" y="1000" />
              <mxPoint x="3230" y="1000" />
              <mxPoint x="3230" y="729" />
            </Array>
          </mxGeometry>
        </mxCell>
        <mxCell id="obIJAErb1e5xh0QblmXE-494" style="edgeStyle=orthogonalEdgeStyle;rounded=0;orthogonalLoop=1;jettySize=auto;html=1;exitX=0;exitY=0;exitDx=112.00000000000001;exitDy=43.5;exitPerimeter=0;dashed=1;endArrow=open;endFill=0;fontFamily=Verdana;fontSize=10;labelBackgroundColor=none;startFill=0;endSize=10;" parent="1" source="obIJAErb1e5xh0QblmXE-486" target="obIJAErb1e5xh0QblmXE-490" edge="1">
          <mxGeometry relative="1" as="geometry">
            <Array as="points">
              <mxPoint x="4042" y="611" />
              <mxPoint x="4042" y="611" />
            </Array>
          </mxGeometry>
        </mxCell>
        <mxCell id="obIJAErb1e5xh0QblmXE-505" style="edgeStyle=orthogonalEdgeStyle;rounded=0;orthogonalLoop=1;jettySize=auto;html=1;exitX=0.75;exitY=1;exitDx=0;exitDy=0;exitPerimeter=0;entryX=0;entryY=0;entryDx=81;entryDy=17;entryPerimeter=0;dashed=1;endArrow=open;endFill=0;fontFamily=Verdana;fontSize=10;labelBackgroundColor=none;startFill=0;endSize=10;" parent="1" source="obIJAErb1e5xh0QblmXE-486" target="obIJAErb1e5xh0QblmXE-480" edge="1">
          <mxGeometry relative="1" as="geometry" />
        </mxCell>
        <mxCell id="obIJAErb1e5xh0QblmXE-486" value="start_auto_extract(&#xa;self, instance)" style="shape=folder;fontStyle=1;spacingTop=10;tabWidth=50;tabHeight=17;tabPosition=left;rounded=0;shadow=0;comic=0;labelBackgroundColor=none;strokeWidth=1;fontFamily=Helvetica;fontSize=12;align=center;" parent="1" vertex="1">
          <mxGeometry x="3910" y="567.2" width="112" height="70" as="geometry" />
        </mxCell>
        <mxCell id="obIJAErb1e5xh0QblmXE-490" value="stop_auto_extract&#xa;(self, instance)" style="shape=folder;fontStyle=1;spacingTop=10;tabWidth=50;tabHeight=17;tabPosition=left;rounded=0;shadow=0;comic=0;labelBackgroundColor=none;strokeWidth=1;fontFamily=Helvetica;fontSize=12;align=center;" parent="1" vertex="1">
          <mxGeometry x="4050" y="569.5" width="112" height="70" as="geometry" />
        </mxCell>
        <mxCell id="obIJAErb1e5xh0QblmXE-502" style="edgeStyle=orthogonalEdgeStyle;rounded=0;orthogonalLoop=1;jettySize=auto;html=1;exitX=0.5;exitY=1;exitDx=0;exitDy=0;exitPerimeter=0;entryX=0;entryY=0;entryDx=81;entryDy=17;entryPerimeter=0;dashed=1;endArrow=open;endFill=0;fontFamily=Verdana;fontSize=10;labelBackgroundColor=none;startFill=0;endSize=10;" parent="1" source="obIJAErb1e5xh0QblmXE-496" target="obIJAErb1e5xh0QblmXE-501" edge="1">
          <mxGeometry relative="1" as="geometry" />
        </mxCell>
        <mxCell id="obIJAErb1e5xh0QblmXE-496" value="show_all_tables()" style="shape=folder;fontStyle=1;spacingTop=10;tabWidth=50;tabHeight=17;tabPosition=left;rounded=0;shadow=0;comic=0;labelBackgroundColor=none;strokeWidth=1;fontFamily=Helvetica;fontSize=12;align=center;" parent="1" vertex="1">
          <mxGeometry x="4334" y="677.71" width="112" height="70" as="geometry" />
        </mxCell>
        <mxCell id="obIJAErb1e5xh0QblmXE-503" style="edgeStyle=orthogonalEdgeStyle;rounded=0;orthogonalLoop=1;jettySize=auto;html=1;exitX=0;exitY=0;exitDx=0;exitDy=30.25;exitPerimeter=0;entryX=0;entryY=0;entryDx=112;entryDy=43.5;entryPerimeter=0;dashed=1;endArrow=open;endFill=0;fontFamily=Verdana;fontSize=10;labelBackgroundColor=none;startFill=0;endSize=10;" parent="1" source="obIJAErb1e5xh0QblmXE-501" target="obIJAErb1e5xh0QblmXE-465" edge="1">
          <mxGeometry relative="1" as="geometry">
            <Array as="points">
              <mxPoint x="3880" y="806" />
              <mxPoint x="3880" y="733" />
            </Array>
          </mxGeometry>
        </mxCell>
        <mxCell id="obIJAErb1e5xh0QblmXE-507" style="edgeStyle=orthogonalEdgeStyle;rounded=0;orthogonalLoop=1;jettySize=auto;html=1;exitX=0;exitY=0;exitDx=0;exitDy=43.5;exitPerimeter=0;entryX=0;entryY=0;entryDx=112.00000000000001;entryDy=43.5;entryPerimeter=0;dashed=1;endArrow=open;endFill=0;fontFamily=Verdana;fontSize=10;labelBackgroundColor=none;startFill=0;endSize=10;" parent="1" source="obIJAErb1e5xh0QblmXE-501" target="obIJAErb1e5xh0QblmXE-467" edge="1">
          <mxGeometry relative="1" as="geometry" />
        </mxCell>
        <mxCell id="obIJAErb1e5xh0QblmXE-501" value="connect_to_&#xa;database(self)" style="shape=folder;fontStyle=1;spacingTop=10;tabWidth=50;tabHeight=17;tabPosition=left;rounded=0;shadow=0;comic=0;labelBackgroundColor=none;strokeWidth=1;fontFamily=Helvetica;fontSize=12;align=center;" parent="1" vertex="1">
          <mxGeometry x="4334" y="775.41" width="112" height="70" as="geometry" />
        </mxCell>
        <mxCell id="obIJAErb1e5xh0QblmXE-655" style="edgeStyle=orthogonalEdgeStyle;rounded=0;orthogonalLoop=1;jettySize=auto;html=1;exitX=0;exitY=0;exitDx=0;exitDy=43.5;exitPerimeter=0;entryX=0;entryY=0;entryDx=112;entryDy=43.5;entryPerimeter=0;dashed=1;endArrow=open;endFill=0;fontFamily=Verdana;fontSize=10;labelBackgroundColor=none;startFill=0;endSize=10;" parent="1" source="obIJAErb1e5xh0QblmXE-563" target="obIJAErb1e5xh0QblmXE-626" edge="1">
          <mxGeometry relative="1" as="geometry" />
        </mxCell>
        <mxCell id="obIJAErb1e5xh0QblmXE-563" value="UI" style="shape=folder;fontStyle=1;spacingTop=10;tabWidth=50;tabHeight=17;tabPosition=left;html=1;rounded=0;shadow=0;comic=0;labelBackgroundColor=none;strokeColor=#000000;strokeWidth=1;fillColor=#ffffff;fontFamily=Verdana;fontSize=10;fontColor=#000000;align=center;" parent="1" vertex="1">
          <mxGeometry x="1562" y="1960" width="112" height="70" as="geometry" />
        </mxCell>
        <mxCell id="obIJAErb1e5xh0QblmXE-625" style="edgeStyle=orthogonalEdgeStyle;rounded=0;orthogonalLoop=1;jettySize=auto;html=1;exitX=0;exitY=0;exitDx=112.00000000000001;exitDy=30.25;exitPerimeter=0;dashed=1;endArrow=open;endFill=0;fontFamily=Verdana;fontSize=10;labelBackgroundColor=none;startFill=0;endSize=10;" parent="1" source="obIJAErb1e5xh0QblmXE-564" edge="1">
          <mxGeometry relative="1" as="geometry">
            <mxPoint x="2972" y="2000" as="targetPoint" />
            <Array as="points">
              <mxPoint x="2834" y="2000" />
              <mxPoint x="2972" y="2000" />
            </Array>
          </mxGeometry>
        </mxCell>
        <mxCell id="obIJAErb1e5xh0QblmXE-564" value="UI" style="shape=folder;fontStyle=1;spacingTop=10;tabWidth=50;tabHeight=17;tabPosition=left;html=1;rounded=0;shadow=0;comic=0;labelBackgroundColor=none;strokeWidth=1;fontFamily=Verdana;fontSize=10;align=center;" parent="1" vertex="1">
          <mxGeometry x="2722" y="1960" width="112" height="70" as="geometry" />
        </mxCell>
        <mxCell id="obIJAErb1e5xh0QblmXE-615" style="edgeStyle=orthogonalEdgeStyle;rounded=0;orthogonalLoop=1;jettySize=auto;html=1;exitX=0;exitY=0;exitDx=81;exitDy=17;exitPerimeter=0;entryX=0.75;entryY=1;entryDx=0;entryDy=0;entryPerimeter=0;dashed=1;endArrow=open;endFill=0;fontFamily=Verdana;fontSize=10;labelBackgroundColor=none;startFill=0;endSize=10;" parent="1" source="obIJAErb1e5xh0QblmXE-570" target="obIJAErb1e5xh0QblmXE-563" edge="1">
          <mxGeometry relative="1" as="geometry">
            <Array as="points">
              <mxPoint x="1646" y="2137" />
            </Array>
          </mxGeometry>
        </mxCell>
        <mxCell id="obIJAErb1e5xh0QblmXE-649" style="edgeStyle=orthogonalEdgeStyle;rounded=0;orthogonalLoop=1;jettySize=auto;html=1;exitX=0;exitY=0;exitDx=112;exitDy=30.25;exitPerimeter=0;entryX=-0.006;entryY=0.535;entryDx=0;entryDy=0;entryPerimeter=0;dashed=1;endArrow=open;endFill=0;fontFamily=Verdana;fontSize=10;labelBackgroundColor=none;startFill=0;endSize=10;" parent="1" source="obIJAErb1e5xh0QblmXE-570" target="obIJAErb1e5xh0QblmXE-645" edge="1">
          <mxGeometry relative="1" as="geometry" />
        </mxCell>
        <mxCell id="obIJAErb1e5xh0QblmXE-656" style="edgeStyle=orthogonalEdgeStyle;rounded=0;orthogonalLoop=1;jettySize=auto;html=1;exitX=0;exitY=0;exitDx=112;exitDy=43.5;exitPerimeter=0;entryX=0;entryY=0;entryDx=112;entryDy=43.5;entryPerimeter=0;dashed=1;endArrow=open;endFill=0;fontFamily=Verdana;fontSize=10;labelBackgroundColor=none;startFill=0;endSize=10;" parent="1" source="obIJAErb1e5xh0QblmXE-570" target="obIJAErb1e5xh0QblmXE-572" edge="1">
          <mxGeometry relative="1" as="geometry" />
        </mxCell>
        <mxCell id="obIJAErb1e5xh0QblmXE-570" value="Data Processing" style="shape=folder;fontStyle=1;spacingTop=10;tabWidth=50;tabHeight=17;tabPosition=left;html=1;rounded=0;shadow=0;comic=0;labelBackgroundColor=none;strokeWidth=1;fontFamily=Verdana;fontSize=10;align=center;" parent="1" vertex="1">
          <mxGeometry x="1562" y="2120" width="112" height="70" as="geometry" />
        </mxCell>
        <mxCell id="obIJAErb1e5xh0QblmXE-572" value="Hashing" style="shape=folder;fontStyle=1;spacingTop=10;tabWidth=50;tabHeight=17;tabPosition=left;html=1;rounded=0;shadow=0;comic=0;labelBackgroundColor=none;strokeWidth=1;fontFamily=Verdana;fontSize=10;align=center;" parent="1" vertex="1">
          <mxGeometry x="1562" y="2300" width="112" height="70" as="geometry" />
        </mxCell>
        <mxCell id="obIJAErb1e5xh0QblmXE-573" value="Keyboard Logging" style="shape=folder;fontStyle=1;spacingTop=10;tabWidth=50;tabHeight=17;tabPosition=left;html=1;rounded=0;shadow=0;comic=0;labelBackgroundColor=none;strokeWidth=1;fontFamily=Verdana;fontSize=10;align=center;" parent="1" vertex="1">
          <mxGeometry x="1729" y="2120" width="112" height="70" as="geometry" />
        </mxCell>
        <mxCell id="obIJAErb1e5xh0QblmXE-628" style="edgeStyle=orthogonalEdgeStyle;rounded=0;orthogonalLoop=1;jettySize=auto;html=1;exitX=0;exitY=0;exitDx=81;exitDy=17;exitPerimeter=0;entryX=0.75;entryY=1;entryDx=0;entryDy=0;entryPerimeter=0;dashed=1;endArrow=open;endFill=0;fontFamily=Verdana;fontSize=10;labelBackgroundColor=none;startFill=0;endSize=10;" parent="1" source="obIJAErb1e5xh0QblmXE-574" target="obIJAErb1e5xh0QblmXE-570" edge="1">
          <mxGeometry relative="1" as="geometry" />
        </mxCell>
        <mxCell id="obIJAErb1e5xh0QblmXE-657" style="edgeStyle=orthogonalEdgeStyle;rounded=0;orthogonalLoop=1;jettySize=auto;html=1;exitX=0;exitY=0;exitDx=0;exitDy=56.75;exitPerimeter=0;entryX=0;entryY=0;entryDx=0;entryDy=43.5;entryPerimeter=0;dashed=1;endArrow=open;endFill=0;fontFamily=Verdana;fontSize=10;labelBackgroundColor=none;startFill=0;endSize=10;" parent="1" source="obIJAErb1e5xh0QblmXE-574" target="obIJAErb1e5xh0QblmXE-597" edge="1">
          <mxGeometry relative="1" as="geometry" />
        </mxCell>
        <mxCell id="obIJAErb1e5xh0QblmXE-574" value="Mail Handling" style="shape=folder;fontStyle=1;spacingTop=10;tabWidth=50;tabHeight=17;tabPosition=left;html=1;rounded=0;shadow=0;comic=0;labelBackgroundColor=none;strokeWidth=1;fontFamily=Verdana;fontSize=10;align=center;" parent="1" vertex="1">
          <mxGeometry x="1562" y="2210" width="112" height="70" as="geometry" />
        </mxCell>
        <mxCell id="obIJAErb1e5xh0QblmXE-651" style="edgeStyle=orthogonalEdgeStyle;rounded=0;orthogonalLoop=1;jettySize=auto;html=1;exitX=0;exitY=0;exitDx=81;exitDy=17;exitPerimeter=0;entryX=0.5;entryY=1;entryDx=0;entryDy=0;entryPerimeter=0;dashed=1;endArrow=open;endFill=0;fontFamily=Verdana;fontSize=10;labelBackgroundColor=none;startFill=0;endSize=10;" parent="1" source="obIJAErb1e5xh0QblmXE-575" target="obIJAErb1e5xh0QblmXE-645" edge="1">
          <mxGeometry relative="1" as="geometry">
            <Array as="points">
              <mxPoint x="1852" y="2337" />
            </Array>
          </mxGeometry>
        </mxCell>
        <mxCell id="obIJAErb1e5xh0QblmXE-652" style="edgeStyle=orthogonalEdgeStyle;rounded=0;orthogonalLoop=1;jettySize=auto;html=1;exitX=0;exitY=0;exitDx=112;exitDy=43.5;exitPerimeter=0;entryX=0;entryY=0;entryDx=81;entryDy=17;entryPerimeter=0;dashed=1;endArrow=open;endFill=0;fontFamily=Verdana;fontSize=10;labelBackgroundColor=none;startFill=0;endSize=10;" parent="1" source="obIJAErb1e5xh0QblmXE-575" target="obIJAErb1e5xh0QblmXE-563" edge="1">
          <mxGeometry relative="1" as="geometry">
            <Array as="points">
              <mxPoint x="2012" y="2364" />
              <mxPoint x="2012" y="1940" />
              <mxPoint x="1643" y="1940" />
            </Array>
          </mxGeometry>
        </mxCell>
        <mxCell id="obIJAErb1e5xh0QblmXE-575" value="Statistics" style="shape=folder;fontStyle=1;spacingTop=10;tabWidth=50;tabHeight=17;tabPosition=left;html=1;rounded=0;shadow=0;comic=0;labelBackgroundColor=none;strokeWidth=1;fontFamily=Verdana;fontSize=10;align=center;" parent="1" vertex="1">
          <mxGeometry x="1787" y="2320" width="112" height="70" as="geometry" />
        </mxCell>
        <mxCell id="obIJAErb1e5xh0QblmXE-597" value="Mail server&lt;br&gt;mail.ru" style="shape=folder;fontStyle=1;spacingTop=10;tabWidth=50;tabHeight=17;tabPosition=left;html=1;rounded=0;shadow=0;comic=0;labelBackgroundColor=none;strokeWidth=1;fontFamily=Verdana;fontSize=10;align=center;" parent="1" vertex="1">
          <mxGeometry x="2138" y="2440.07" width="112" height="70" as="geometry" />
        </mxCell>
        <mxCell id="obIJAErb1e5xh0QblmXE-623" style="edgeStyle=orthogonalEdgeStyle;rounded=0;orthogonalLoop=1;jettySize=auto;html=1;exitX=0;exitY=0;exitDx=81;exitDy=17;exitPerimeter=0;entryX=0;entryY=0;entryDx=81;entryDy=17;entryPerimeter=0;dashed=1;endArrow=open;endFill=0;fontFamily=Verdana;fontSize=10;labelBackgroundColor=none;startFill=0;endSize=10;" parent="1" source="obIJAErb1e5xh0QblmXE-600" target="obIJAErb1e5xh0QblmXE-564" edge="1">
          <mxGeometry relative="1" as="geometry">
            <Array as="points">
              <mxPoint x="2219" y="1940" />
              <mxPoint x="2803" y="1940" />
            </Array>
          </mxGeometry>
        </mxCell>
        <mxCell id="obIJAErb1e5xh0QblmXE-638" style="edgeStyle=orthogonalEdgeStyle;rounded=0;orthogonalLoop=1;jettySize=auto;html=1;entryX=0;entryY=0;entryDx=0;entryDy=43.5;entryPerimeter=0;dashed=1;endArrow=open;endFill=0;fontFamily=Verdana;fontSize=10;exitX=0;exitY=0;exitDx=0;exitDy=30.25;exitPerimeter=0;labelBackgroundColor=none;startFill=0;endSize=10;" parent="1" source="obIJAErb1e5xh0QblmXE-600" target="obIJAErb1e5xh0QblmXE-574" edge="1">
          <mxGeometry relative="1" as="geometry">
            <mxPoint x="2112" y="1970" as="sourcePoint" />
            <Array as="points">
              <mxPoint x="2138" y="2000" />
              <mxPoint x="2122" y="2000" />
              <mxPoint x="2122" y="1920" />
              <mxPoint x="1372" y="1920" />
              <mxPoint x="1372" y="2254" />
            </Array>
          </mxGeometry>
        </mxCell>
        <mxCell id="obIJAErb1e5xh0QblmXE-658" style="edgeStyle=orthogonalEdgeStyle;rounded=0;orthogonalLoop=1;jettySize=auto;html=1;exitX=0.5;exitY=1;exitDx=0;exitDy=0;exitPerimeter=0;dashed=1;endArrow=open;endFill=0;fontFamily=Verdana;fontSize=10;labelBackgroundColor=none;startFill=0;endSize=10;" parent="1" source="obIJAErb1e5xh0QblmXE-600" edge="1">
          <mxGeometry relative="1" as="geometry">
            <mxPoint x="2194" y="2457" as="targetPoint" />
            <Array as="points">
              <mxPoint x="2194" y="2240" />
              <mxPoint x="2194" y="2240" />
            </Array>
          </mxGeometry>
        </mxCell>
        <mxCell id="obIJAErb1e5xh0QblmXE-600" value="Mail Retrieval" style="shape=folder;fontStyle=1;spacingTop=10;tabWidth=50;tabHeight=17;tabPosition=left;html=1;rounded=0;shadow=0;comic=0;labelBackgroundColor=none;strokeWidth=1;fontFamily=Verdana;fontSize=10;align=center;" parent="1" vertex="1">
          <mxGeometry x="2138" y="1960" width="112" height="70" as="geometry" />
        </mxCell>
        <mxCell id="obIJAErb1e5xh0QblmXE-664" style="edgeStyle=orthogonalEdgeStyle;rounded=0;orthogonalLoop=1;jettySize=auto;html=1;exitX=0;exitY=0;exitDx=112;exitDy=43.5;exitPerimeter=0;entryX=0.5;entryY=1;entryDx=0;entryDy=0;entryPerimeter=0;dashed=1;endArrow=open;endFill=0;fontFamily=Verdana;fontSize=10;labelBackgroundColor=none;startFill=0;endSize=10;" parent="1" source="obIJAErb1e5xh0QblmXE-606" target="obIJAErb1e5xh0QblmXE-564" edge="1">
          <mxGeometry relative="1" as="geometry" />
        </mxCell>
        <mxCell id="obIJAErb1e5xh0QblmXE-665" style="edgeStyle=orthogonalEdgeStyle;rounded=0;orthogonalLoop=1;jettySize=auto;html=1;exitX=0;exitY=0;exitDx=0;exitDy=43.5;exitPerimeter=0;entryX=0;entryY=0;entryDx=112;entryDy=43.5;entryPerimeter=0;dashed=1;endArrow=open;endFill=0;fontFamily=Verdana;fontSize=10;labelBackgroundColor=none;startFill=0;endSize=10;" parent="1" source="obIJAErb1e5xh0QblmXE-606" target="obIJAErb1e5xh0QblmXE-600" edge="1">
          <mxGeometry relative="1" as="geometry">
            <Array as="points">
              <mxPoint x="2292" y="2093" />
              <mxPoint x="2292" y="2003" />
            </Array>
          </mxGeometry>
        </mxCell>
        <mxCell id="obIJAErb1e5xh0QblmXE-606" value="Data Processing" style="shape=folder;fontStyle=1;spacingTop=10;tabWidth=50;tabHeight=17;tabPosition=left;html=1;rounded=0;shadow=0;comic=0;labelBackgroundColor=none;strokeWidth=1;fontFamily=Verdana;fontSize=10;align=center;" parent="1" vertex="1">
          <mxGeometry x="2352" y="2050" width="112" height="70" as="geometry" />
        </mxCell>
        <mxCell id="obIJAErb1e5xh0QblmXE-611" style="edgeStyle=orthogonalEdgeStyle;rounded=0;orthogonalLoop=1;jettySize=auto;html=1;exitX=0;exitY=0;exitDx=81;exitDy=17;exitPerimeter=0;entryX=0.75;entryY=1;entryDx=0;entryDy=0;entryPerimeter=0;dashed=1;endArrow=open;endFill=0;fontFamily=Verdana;fontSize=10;labelBackgroundColor=none;startFill=0;endSize=10;" parent="1" source="obIJAErb1e5xh0QblmXE-609" target="obIJAErb1e5xh0QblmXE-606" edge="1">
          <mxGeometry relative="1" as="geometry">
            <Array as="points">
              <mxPoint x="2436" y="2187" />
            </Array>
          </mxGeometry>
        </mxCell>
        <mxCell id="obIJAErb1e5xh0QblmXE-616" style="edgeStyle=orthogonalEdgeStyle;rounded=0;orthogonalLoop=1;jettySize=auto;html=1;exitX=0;exitY=0;exitDx=112.00000000000001;exitDy=56.75;exitPerimeter=0;entryX=0.75;entryY=1;entryDx=0;entryDy=0;entryPerimeter=0;dashed=1;endArrow=open;endFill=0;fontFamily=Verdana;fontSize=10;labelBackgroundColor=none;startFill=0;endSize=10;" parent="1" source="obIJAErb1e5xh0QblmXE-609" target="obIJAErb1e5xh0QblmXE-564" edge="1">
          <mxGeometry relative="1" as="geometry">
            <Array as="points">
              <mxPoint x="2464" y="2210" />
              <mxPoint x="2806" y="2210" />
            </Array>
          </mxGeometry>
        </mxCell>
        <mxCell id="obIJAErb1e5xh0QblmXE-621" style="edgeStyle=orthogonalEdgeStyle;rounded=0;orthogonalLoop=1;jettySize=auto;html=1;exitX=0.75;exitY=1;exitDx=0;exitDy=0;exitPerimeter=0;entryX=0;entryY=0;entryDx=81;entryDy=17;entryPerimeter=0;dashed=1;endArrow=open;endFill=0;fontFamily=Verdana;fontSize=10;labelBackgroundColor=none;startFill=0;endSize=10;" parent="1" source="obIJAErb1e5xh0QblmXE-609" target="obIJAErb1e5xh0QblmXE-617" edge="1">
          <mxGeometry relative="1" as="geometry">
            <Array as="points">
              <mxPoint x="2433" y="2240" />
            </Array>
          </mxGeometry>
        </mxCell>
        <mxCell id="obIJAErb1e5xh0QblmXE-609" value="Database &lt;br&gt;Operations" style="shape=folder;fontStyle=1;spacingTop=10;tabWidth=50;tabHeight=17;tabPosition=left;html=1;rounded=0;shadow=0;comic=0;labelBackgroundColor=none;strokeWidth=1;fontFamily=Verdana;fontSize=10;align=center;" parent="1" vertex="1">
          <mxGeometry x="2352" y="2170" width="112" height="70" as="geometry" />
        </mxCell>
        <mxCell id="obIJAErb1e5xh0QblmXE-620" style="edgeStyle=orthogonalEdgeStyle;rounded=0;orthogonalLoop=1;jettySize=auto;html=1;exitX=0.75;exitY=1;exitDx=0;exitDy=0;exitPerimeter=0;dashed=1;endArrow=open;endFill=0;fontFamily=Verdana;fontSize=10;entryX=0;entryY=0;entryDx=81;entryDy=17;entryPerimeter=0;labelBackgroundColor=none;startFill=0;endSize=10;" parent="1" source="obIJAErb1e5xh0QblmXE-617" target="obIJAErb1e5xh0QblmXE-618" edge="1">
          <mxGeometry relative="1" as="geometry">
            <mxPoint x="2435.666666666667" y="2389.999999999999" as="targetPoint" />
            <Array as="points">
              <mxPoint x="2433" y="2350" />
            </Array>
          </mxGeometry>
        </mxCell>
        <mxCell id="obIJAErb1e5xh0QblmXE-617" value="Database&lt;br&gt;EHP_Project" style="shape=folder;fontStyle=1;spacingTop=10;tabWidth=50;tabHeight=17;tabPosition=left;html=1;rounded=0;shadow=0;comic=0;labelBackgroundColor=none;strokeWidth=1;fontFamily=Verdana;fontSize=10;align=center;" parent="1" vertex="1">
          <mxGeometry x="2352" y="2280" width="112" height="70" as="geometry" />
        </mxCell>
        <mxCell id="obIJAErb1e5xh0QblmXE-618" value="PostgreSQL" style="shape=folder;fontStyle=1;spacingTop=10;tabWidth=50;tabHeight=17;tabPosition=left;html=1;rounded=0;shadow=0;comic=0;labelBackgroundColor=none;strokeWidth=1;fontFamily=Verdana;fontSize=10;align=center;" parent="1" vertex="1">
          <mxGeometry x="2352" y="2394" width="112" height="70" as="geometry" />
        </mxCell>
        <mxCell id="obIJAErb1e5xh0QblmXE-624" value="Kivy Library" style="shape=folder;fontStyle=1;spacingTop=10;tabWidth=50;tabHeight=17;tabPosition=left;html=1;rounded=0;shadow=0;comic=0;labelBackgroundColor=none;strokeWidth=1;fontFamily=Verdana;fontSize=10;align=center;" parent="1" vertex="1">
          <mxGeometry x="2972" y="1960" width="112" height="70" as="geometry" />
        </mxCell>
        <mxCell id="obIJAErb1e5xh0QblmXE-626" value="Kivy Library" style="shape=folder;fontStyle=1;spacingTop=10;tabWidth=50;tabHeight=17;tabPosition=left;html=1;rounded=0;shadow=0;comic=0;labelBackgroundColor=none;strokeWidth=1;fontFamily=Verdana;fontSize=10;align=center;" parent="1" vertex="1">
          <mxGeometry x="1402" y="1960" width="112" height="70" as="geometry" />
        </mxCell>
        <mxCell id="obIJAErb1e5xh0QblmXE-640" value="File Searching" style="shape=folder;fontStyle=1;spacingTop=10;tabWidth=50;tabHeight=17;tabPosition=left;html=1;rounded=0;shadow=0;comic=0;labelBackgroundColor=none;strokeWidth=1;fontFamily=Verdana;fontSize=10;align=center;" parent="1" vertex="1">
          <mxGeometry x="1866.5" y="2120" width="112" height="70" as="geometry" />
        </mxCell>
        <mxCell id="obIJAErb1e5xh0QblmXE-660" style="edgeStyle=orthogonalEdgeStyle;rounded=0;orthogonalLoop=1;jettySize=auto;html=1;exitX=0.5;exitY=1;exitDx=0;exitDy=0;exitPerimeter=0;entryX=0;entryY=0;entryDx=474.5;entryDy=22;entryPerimeter=0;dashed=1;endArrow=open;endFill=0;fontFamily=Verdana;fontSize=10;labelBackgroundColor=none;startFill=0;endSize=10;" parent="1" source="obIJAErb1e5xh0QblmXE-3" target="obIJAErb1e5xh0QblmXE-659" edge="1">
          <mxGeometry relative="1" as="geometry">
            <Array as="points">
              <mxPoint x="1821" y="1810" />
            </Array>
          </mxGeometry>
        </mxCell>
        <mxCell id="obIJAErb1e5xh0QblmXE-662" style="edgeStyle=orthogonalEdgeStyle;rounded=0;orthogonalLoop=1;jettySize=auto;html=1;exitX=0.5;exitY=1;exitDx=0;exitDy=0;exitPerimeter=0;dashed=1;endArrow=open;endFill=0;fontFamily=Verdana;fontSize=10;labelBackgroundColor=none;startFill=0;endSize=10;" parent="1" source="obIJAErb1e5xh0QblmXE-6" edge="1">
          <mxGeometry relative="1" as="geometry">
            <mxPoint x="2703" y="1903" as="targetPoint" />
            <Array as="points">
              <mxPoint x="2703" y="1845" />
            </Array>
          </mxGeometry>
        </mxCell>
        <mxCell id="obIJAErb1e5xh0QblmXE-663" style="edgeStyle=orthogonalEdgeStyle;rounded=0;orthogonalLoop=1;jettySize=auto;html=1;exitX=0;exitY=0;exitDx=0;exitDy=43.5;exitPerimeter=0;entryX=0;entryY=0;entryDx=130;entryDy=43.5;entryPerimeter=0;dashed=1;endArrow=open;endFill=0;fontFamily=Verdana;fontSize=10;labelBackgroundColor=none;startFill=0;endSize=10;" parent="1" source="obIJAErb1e5xh0QblmXE-6" target="obIJAErb1e5xh0QblmXE-3" edge="1">
          <mxGeometry relative="1" as="geometry" />
        </mxCell>
        <mxCell id="kIz9dwGKQSJNEWu8HIwC-1" value="Kivy Components" style="text;html=1;strokeColor=none;fillColor=none;align=center;verticalAlign=middle;whiteSpace=wrap;rounded=0;" vertex="1" parent="1">
          <mxGeometry x="-242" y="497" width="107" height="30" as="geometry" />
        </mxCell>
        <mxCell id="kIz9dwGKQSJNEWu8HIwC-2" value="start_search" style="text;html=1;strokeColor=none;fillColor=none;align=center;verticalAlign=middle;whiteSpace=wrap;rounded=0;" vertex="1" parent="1">
          <mxGeometry x="520" y="537.2" width="60" height="30" as="geometry" />
        </mxCell>
        <mxCell id="kIz9dwGKQSJNEWu8HIwC-3" value="start_keylogger" style="text;html=1;strokeColor=none;fillColor=none;align=center;verticalAlign=middle;whiteSpace=wrap;rounded=0;" vertex="1" parent="1">
          <mxGeometry x="946" y="537.2" width="60" height="30" as="geometry" />
        </mxCell>
        <mxCell id="kIz9dwGKQSJNEWu8HIwC-5" value="show_statistics" style="text;html=1;strokeColor=none;fillColor=none;align=center;verticalAlign=middle;whiteSpace=wrap;rounded=0;" vertex="1" parent="1">
          <mxGeometry x="1373" y="491.01" width="60" height="30" as="geometry" />
        </mxCell>
        <mxCell id="kIz9dwGKQSJNEWu8HIwC-6" value="process_key_presses" style="text;html=1;strokeColor=none;fillColor=none;align=center;verticalAlign=middle;whiteSpace=wrap;rounded=0;" vertex="1" parent="1">
          <mxGeometry x="1017" y="747.71" width="60" height="30" as="geometry" />
        </mxCell>
        <mxCell id="kIz9dwGKQSJNEWu8HIwC-7" value="process_files" style="text;html=1;strokeColor=none;fillColor=none;align=center;verticalAlign=middle;whiteSpace=wrap;rounded=0;" vertex="1" parent="1">
          <mxGeometry x="665" y="747.7099999999999" width="60" height="30" as="geometry" />
        </mxCell>
        <mxCell id="kIz9dwGKQSJNEWu8HIwC-8" value="Kivy Components" style="text;html=1;strokeColor=none;fillColor=none;align=center;verticalAlign=middle;whiteSpace=wrap;rounded=0;" vertex="1" parent="1">
          <mxGeometry x="2460" y="474" width="123" height="30" as="geometry" />
        </mxCell>
        <mxCell id="kIz9dwGKQSJNEWu8HIwC-9" value="Поля ввода" style="text;html=1;strokeColor=none;fillColor=none;align=center;verticalAlign=middle;whiteSpace=wrap;rounded=0;" vertex="1" parent="1">
          <mxGeometry x="2919" y="422" width="114" height="30" as="geometry" />
        </mxCell>
        <mxCell id="kIz9dwGKQSJNEWu8HIwC-10" value="Временные файлы" style="text;html=1;strokeColor=none;fillColor=none;align=center;verticalAlign=middle;whiteSpace=wrap;rounded=0;" vertex="1" parent="1">
          <mxGeometry x="3391" y="685.41" width="139" height="30" as="geometry" />
        </mxCell>
        <mxCell id="kIz9dwGKQSJNEWu8HIwC-11" value="Блок авто вставки" style="text;html=1;strokeColor=none;fillColor=none;align=center;verticalAlign=middle;whiteSpace=wrap;rounded=0;" vertex="1" parent="1">
          <mxGeometry x="3560" y="430" width="127" height="30" as="geometry" />
        </mxCell>
        <mxCell id="kIz9dwGKQSJNEWu8HIwC-12" value="Блок авто извлечения" style="text;html=1;strokeColor=none;fillColor=none;align=center;verticalAlign=middle;whiteSpace=wrap;rounded=0;" vertex="1" parent="1">
          <mxGeometry x="3880" y="427" width="142" height="30" as="geometry" />
        </mxCell>
        <mxCell id="kIz9dwGKQSJNEWu8HIwC-13" value="Блок данных из БД" style="text;html=1;strokeColor=none;fillColor=none;align=center;verticalAlign=middle;whiteSpace=wrap;rounded=0;" vertex="1" parent="1">
          <mxGeometry x="4250" y="430" width="127" height="30" as="geometry" />
        </mxCell>
        <mxCell id="kIz9dwGKQSJNEWu8HIwC-14" value="Программа Stealer_Keylogger.py" style="text;html=1;strokeColor=none;fillColor=none;align=center;verticalAlign=middle;whiteSpace=wrap;rounded=0;" vertex="1" parent="1">
          <mxGeometry x="1343" y="1876" width="205" height="30" as="geometry" />
        </mxCell>
        <mxCell id="kIz9dwGKQSJNEWu8HIwC-15" value="Программа &lt;br&gt;Administrator_Interface_&lt;span style=&quot;font-family: helvetica;&quot;&gt;Tools.py&lt;/span&gt;" style="text;html=1;strokeColor=none;fillColor=none;align=center;verticalAlign=middle;whiteSpace=wrap;rounded=0;" vertex="1" parent="1">
          <mxGeometry x="2298" y="1876" width="202" height="30" as="geometry" />
        </mxCell>
        <mxCell id="kIz9dwGKQSJNEWu8HIwC-16" value="Блок паролей,&lt;br&gt;кейлогов" style="text;html=1;strokeColor=none;fillColor=none;align=center;verticalAlign=middle;whiteSpace=wrap;rounded=0;" vertex="1" parent="1">
          <mxGeometry x="1665" y="2067" width="229" height="30" as="geometry" />
        </mxCell>
        <mxCell id="kIz9dwGKQSJNEWu8HIwC-17" value="Database &lt;br&gt;information&lt;br&gt;display" style="shape=folder;fontStyle=1;spacingTop=10;tabWidth=42;tabHeight=20;tabPosition=left;rounded=0;shadow=0;comic=0;labelBackgroundColor=none;strokeWidth=1;fontFamily=Verdana;fontSize=10;align=center;html=1;" vertex="1" parent="1">
          <mxGeometry x="2724" y="2278" width="112" height="70" as="geometry" />
        </mxCell>
        <mxCell id="kIz9dwGKQSJNEWu8HIwC-18" style="edgeStyle=orthogonalEdgeStyle;rounded=0;orthogonalLoop=1;jettySize=auto;html=1;exitX=0;exitY=0;exitDx=0;exitDy=45;exitPerimeter=0;entryX=0;entryY=0;entryDx=112;entryDy=43.5;entryPerimeter=0;labelBackgroundColor=none;endArrow=open;fontSize=10;fontFamily=Verdana;dashed=1;startFill=0;endFill=0;endSize=10;" edge="1" parent="1" source="kIz9dwGKQSJNEWu8HIwC-17" target="obIJAErb1e5xh0QblmXE-617">
          <mxGeometry relative="1" as="geometry" />
        </mxCell>
        <mxCell id="kIz9dwGKQSJNEWu8HIwC-19" style="edgeStyle=orthogonalEdgeStyle;rounded=0;orthogonalLoop=1;jettySize=auto;html=1;exitX=0;exitY=0;exitDx=112;exitDy=56.75;exitPerimeter=0;entryX=0;entryY=0;entryDx=112;entryDy=45;entryPerimeter=0;labelBackgroundColor=none;endArrow=open;fontSize=10;fontFamily=Verdana;dashed=1;startFill=0;endFill=0;endSize=10;" edge="1" parent="1" source="obIJAErb1e5xh0QblmXE-564" target="kIz9dwGKQSJNEWu8HIwC-17">
          <mxGeometry relative="1" as="geometry" />
        </mxCell>
      </root>
    </mxGraphModel>
  </diagram>
</mxfile>
